<svg width="355" height="317" viewBox="0 0 355 317" fill="none" xmlns="http://www.w3.org/2000/svg">
<path d="M343.395 285.353C341.817 284.557 339.842 283.915 337.748 283.487C333.016 282.525 327.741 282.453 322.598 282.394C278.034 281.906 233.776 281.728 189.199 281.728C154.1 281.479 119.014 281.217 83.9144 281.063C67.4119 280.991 50.8696 280.932 34.4201 281.621C27.607 281.906 20.5156 282.37 14.8822 284.26C9.24881 286.15 5.66998 289.882 8.53308 292.901C13.2916 297.893 29.2374 297.607 38.4496 297.619C109.483 297.714 180.53 297.524 251.564 297.322C275.343 297.251 299.123 297.191 322.863 296.573C328.178 296.431 333.666 296.252 338.437 295.099C343.222 293.958 347.186 291.605 346.894 289.026C346.748 287.623 345.383 286.364 343.395 285.353Z" fill="#D9E0FC"/>
<path d="M345.794 174.794C344.587 175.032 343.209 175.162 341.658 175.162C288.346 175.162 235.048 175.162 181.736 175.15C155.08 175.15 128.424 175.15 101.782 175.139C89.3752 175.139 39.6158 181.295 34.221 170.301C33.0811 167.984 33.0811 165.428 33.0811 162.932C33.0811 115.877 33.2268 68.8225 33.2268 21.7677C33.2268 20.1037 33.2268 18.4279 33.2268 16.7639C33.2268 13.2458 36.7262 10.3933 41.0341 10.3933C99.3297 10.3933 157.612 10.3933 215.908 10.3933C246.036 10.3933 276.165 10.3933 306.307 10.3933C318.992 10.3933 353.72 5.09232 353.72 19.9849C353.72 48.2843 353.707 76.5957 353.707 104.895C353.707 119.372 353.707 133.86 353.707 148.337C353.694 157.548 358.412 172.286 345.794 174.794Z" fill="#D9E0FC"/>
<path d="M327.806 165.226C322.942 168.221 313.942 166.522 306.453 166.522C291.7 166.522 276.96 166.522 262.207 166.522C222.296 166.522 182.399 166.522 142.488 166.522C102.272 166.522 62.0697 166.522 21.8539 166.522C20.5019 166.522 19.4149 165.547 19.4149 164.335C19.4017 136.297 19.2161 108.247 19.1498 80.2091C19.1101 66.1841 19.1101 52.1711 19.1764 38.1462C19.2161 28.9705 15.0408 8.81267 21.9202 1.63381C23.8554 -0.37484 48.8279 2.10923 51.9428 2.10923C65.3437 2.08546 78.7444 2.06169 92.132 2.03792C118.138 1.99038 144.145 1.94285 170.151 1.88342C205.091 1.88342 240.045 1.75266 274.985 1.68135C293.37 1.64569 327.568 1.74078 330.153 1.76456C333.48 1.80021 332.048 48.2251 332.074 51.66C332.247 70.8076 332.141 89.9671 331.942 109.115C331.796 123.413 331.571 137.711 331.399 152.021C331.372 153.923 331.345 155.825 331.345 157.726C331.359 161.565 329.993 163.871 327.806 165.226Z" fill="#FF6652"/>
<path d="M321.378 151.011C311.808 150.785 302.211 150.952 292.641 150.952C283.058 150.952 273.474 150.964 263.904 150.964C244.737 150.975 225.584 150.987 206.417 150.999C168.296 151.023 130.161 151.035 92.0395 151.13C81.2897 151.154 70.5266 151.177 59.7767 151.213C49.0402 151.237 38.224 151.118 27.514 151.796C26.891 151.831 26.891 152.616 27.514 152.663C37.0708 153.269 46.6808 153.162 56.2509 153.234C65.8343 153.305 75.4177 153.281 84.9878 153.305C104.155 153.352 123.308 153.364 142.475 153.388C180.596 153.436 218.731 153.459 256.852 153.483C267.602 153.495 278.365 153.495 289.115 153.507C299.865 153.519 310.628 153.709 321.378 153.459C323.141 153.424 323.154 151.047 321.378 151.011Z" fill="#9C4DF4"/>
<path d="M310.363 149.703C310.045 148.824 309.488 148.051 308.72 147.41C307.725 146.53 306.559 145.912 305.207 145.579C304.968 145.508 304.73 145.437 304.504 145.365C303.457 145.068 302.41 145.032 301.376 145.234C300.329 145.282 299.362 145.555 298.46 146.066C297.93 146.435 297.4 146.803 296.87 147.172C296.101 147.814 295.557 148.562 295.252 149.442C294.895 149.989 294.722 150.583 294.722 151.225C294.484 152.164 294.537 153.091 294.868 154.03C295.133 154.588 295.398 155.147 295.663 155.718C296.366 156.775 297.307 157.619 298.487 158.249C298.699 158.38 298.898 158.511 299.11 158.641C300.356 159.283 301.694 159.616 303.126 159.616C303.828 159.533 304.531 159.45 305.247 159.366C306.599 159.022 307.765 158.416 308.759 157.536C309.541 156.894 310.085 156.122 310.403 155.242C310.907 154.386 311.132 153.471 311.092 152.497C311.092 151.474 310.867 150.559 310.363 149.703Z" fill="#FF0000"/>
<path d="M269.909 211.936L52.1684 209.048L53.0299 7.00586L269.272 8.50343L269.909 211.936Z" fill="white" stroke="black" stroke-width="0.5" stroke-miterlimit="10"/>
<path d="M100.986 166.402C100.337 173.843 99.6874 181.271 99.0379 188.711C98.9451 189.722 98.1498 190.577 96.9569 190.577C93.1394 190.589 89.3352 190.601 85.5178 190.625C82.098 190.637 78.6782 190.649 75.2584 190.661C74.3571 190.661 73.416 190.673 72.6074 190.245C71.7193 189.769 71.2951 188.949 71.1758 188.07C71.0035 186.631 71.1891 185.11 71.2289 183.66C71.3615 177.527 71.6133 171.394 72.3688 165.285C72.5014 164.18 73.8799 163.93 74.5161 164.572C75.6295 164.263 76.9683 164.406 78.0685 164.406C79.447 164.406 80.8122 164.417 82.1908 164.417C87.7314 164.441 93.2853 164.465 98.8259 164.465C99.926 164.465 101.079 165.356 100.986 166.402ZM95.0217 186.857C95.5254 180.689 96.0157 174.52 96.5194 168.351C93.2719 168.363 90.0112 168.387 86.7638 168.399C84.749 168.411 82.7342 168.423 80.7327 168.435C79.6988 168.447 78.6782 168.447 77.6443 168.447C77.2731 168.447 76.9021 168.447 76.5309 168.447C76.1333 168.744 75.6295 168.922 75.0993 168.946C75.2054 170.931 75.2716 172.927 75.3114 174.924C75.3644 177.789 75.3114 180.653 75.2717 183.517C75.2584 184.266 75.2451 185.015 75.2319 185.764C75.2186 186.156 75.2451 186.572 75.2451 186.988C75.4174 187 75.5766 187.012 75.7091 187.012L77.9094 187C83.6091 186.952 89.3088 186.905 95.0217 186.857Z" fill="#FF0000"/>
<path d="M100.986 123.02C100.337 130.461 99.6874 137.889 99.0379 145.33C98.9451 146.34 98.1498 147.196 96.9569 147.196C93.1394 147.207 89.3352 147.219 85.5178 147.243C82.098 147.255 78.6782 147.267 75.2584 147.279C74.3571 147.279 73.416 147.291 72.6074 146.863C71.7193 146.387 71.2951 145.567 71.1758 144.688C71.0035 143.25 71.1891 141.728 71.2289 140.278C71.3615 134.145 71.6133 128.012 72.3688 121.903C72.5014 120.798 73.8799 120.548 74.5161 121.19C75.6295 120.881 76.9683 121.024 78.0685 121.024C79.447 121.024 80.8122 121.036 82.1908 121.036C87.7314 121.059 93.2853 121.083 98.8259 121.083C99.926 121.083 101.079 121.975 100.986 123.02ZM95.0217 143.475C95.5254 137.307 96.0157 131.138 96.5194 124.97C93.2719 124.982 90.0112 125.005 86.7638 125.017C84.749 125.029 82.7342 125.041 80.7327 125.053C79.6988 125.053 78.6782 125.065 77.6443 125.065C77.2731 125.065 76.9021 125.065 76.5309 125.065C76.1333 125.362 75.6295 125.54 75.0993 125.564C75.2054 127.549 75.2716 129.546 75.3114 131.542C75.3644 134.407 75.3114 137.271 75.2717 140.136C75.2584 140.884 75.2451 141.633 75.2319 142.382C75.2186 142.774 75.2451 143.19 75.2451 143.606C75.4174 143.618 75.5766 143.63 75.7091 143.63L77.9094 143.618C83.6091 143.571 89.3088 143.523 95.0217 143.475Z" fill="#FF0000"/>
<path d="M100.986 79.6386C100.337 87.0789 99.6874 94.5074 99.0379 101.948C98.9451 102.958 98.1498 103.814 96.9569 103.814C93.1394 103.826 89.3352 103.838 85.5178 103.861C82.098 103.873 78.6782 103.885 75.2584 103.897C74.3571 103.897 73.416 103.909 72.6074 103.481C71.7193 103.006 71.2951 102.185 71.1758 101.306C71.0035 99.8678 71.1891 98.3464 71.2289 96.8964C71.3615 90.7634 71.6133 84.6305 72.3688 78.5214C72.5014 77.416 73.8799 77.1664 74.5161 77.8082C75.6295 77.4992 76.9683 77.6418 78.0685 77.6418C79.447 77.6418 80.8122 77.6537 82.1908 77.6537C87.7314 77.6775 93.2853 77.7013 98.8259 77.7013C99.926 77.7013 101.079 78.5927 100.986 79.6386ZM95.0217 100.094C95.5254 93.925 96.0157 87.7564 96.5194 81.5878C93.2719 81.5997 90.0112 81.6235 86.7638 81.6354C84.749 81.6472 82.7342 81.6591 80.7327 81.671C79.6988 81.671 78.6782 81.6829 77.6443 81.6829C77.2731 81.6829 76.9021 81.6829 76.5309 81.6829C76.1333 81.9801 75.6295 82.1583 75.0993 82.1821C75.2054 84.167 75.2716 86.1638 75.3114 88.1605C75.3644 91.0249 75.3114 93.8893 75.2717 96.7538C75.2584 97.5025 75.2451 98.2513 75.2319 99.0001C75.2186 99.3923 75.2451 99.8083 75.2451 100.224C75.4174 100.236 75.5766 100.248 75.7091 100.248L77.9094 100.236C83.6091 100.189 89.3088 100.141 95.0217 100.094Z" fill="#FF0000"/>
<path d="M218.346 81.908C211.387 81.7416 204.415 81.8724 197.456 81.8843C190.564 81.8961 183.658 81.8961 176.765 81.908C162.834 81.9199 148.903 81.9793 134.985 82.0388C131.102 82.0506 127.218 82.0744 123.334 82.0863C119.397 82.0982 115.408 82.0269 111.484 82.2765C110.98 82.3121 110.98 82.9421 111.484 82.9658C114.944 83.1798 118.456 83.1204 121.929 83.1441C125.415 83.1798 128.888 83.1798 132.374 83.1917C139.267 83.2273 146.173 83.2511 153.065 83.2867C166.996 83.3462 180.927 83.3343 194.845 83.3581C202.679 83.3699 210.526 83.5245 218.346 83.3343C219.38 83.3224 219.38 81.9318 218.346 81.908Z" fill="#969696"/>
<path d="M169.74 88.6709C154.696 88.5163 139.651 88.3856 124.607 88.3856C120.312 88.3856 116.004 88.3499 111.71 88.4094C110.888 88.4213 110.888 89.5504 111.71 89.5623C126.741 89.7762 141.798 89.5742 156.843 89.491C161.138 89.4672 165.445 89.3483 169.74 89.3008C170.191 89.3008 170.191 88.6827 169.74 88.6709Z" fill="#969696"/>
<path d="M215.934 95.8611C202.374 95.6353 188.801 95.8135 175.241 95.8373C161.681 95.8611 148.108 95.873 134.548 95.8967C126.886 95.9086 119.238 95.9205 111.577 96.0394C110.954 96.0512 110.954 96.8951 111.577 96.907C125.137 97.1328 138.71 97.0615 152.27 97.0734C165.83 97.0972 179.403 97.1091 192.963 97.1328C200.624 97.1447 208.272 97.2042 215.934 97.0734C216.809 97.0734 216.809 95.873 215.934 95.8611Z" fill="#969696"/>
<path d="M180.808 125.1C176.221 124.827 171.569 125.053 166.969 125.065C162.357 125.077 157.744 125.088 153.131 125.1C143.906 125.124 134.693 125.148 125.468 125.172C120.245 125.184 115.05 125.243 109.827 125.409C109.456 125.421 109.456 125.92 109.827 125.932C119.039 126.206 128.265 126.17 137.49 126.194C146.716 126.218 155.928 126.241 165.153 126.265C167.698 126.277 170.23 126.277 172.775 126.289C175.439 126.301 178.13 126.396 180.794 126.229C181.629 126.194 181.629 125.148 180.808 125.1Z" fill="#969696"/>
<path d="M208.736 134.645C195.879 134.312 182.995 134.443 170.138 134.419C157.4 134.395 144.675 134.383 131.937 134.348L121.081 134.324C117.475 134.312 113.83 134.169 110.225 134.419C109.35 134.478 109.35 135.584 110.225 135.643C113.433 135.869 116.667 135.75 119.875 135.75C123.096 135.738 126.303 135.738 129.524 135.726C135.953 135.714 142.395 135.702 148.824 135.691C161.562 135.667 174.286 135.655 187.025 135.631C194.262 135.619 201.499 135.619 208.736 135.429C209.293 135.405 209.293 134.657 208.736 134.645Z" fill="#969696"/>
<path d="M212.501 171.169C199.073 170.872 185.646 171.014 172.219 171.026C158.791 171.026 145.364 171.038 131.937 171.074C124.421 171.097 116.892 171.181 109.376 171.097C108.502 171.085 108.502 172.322 109.376 172.322C122.804 172.179 136.231 172.381 149.658 172.393C163.086 172.393 176.513 172.405 189.941 172.405C197.456 172.405 204.972 172.417 212.501 172.25C213.269 172.238 213.269 171.192 212.501 171.169Z" fill="#969696"/>
<path d="M131.088 177.539C123.984 177.539 116.892 177.67 109.801 177.729C109.297 177.729 109.297 178.419 109.801 178.419C116.892 178.478 123.997 178.609 131.088 178.609C131.87 178.621 131.87 177.539 131.088 177.539Z" fill="#969696"/>
<path d="M202.891 178.335C195.031 177.872 187.104 178.074 179.231 178.11C171.278 178.145 163.325 178.193 155.372 178.228C150.891 178.252 146.411 178.276 141.944 178.478C141.441 178.502 141.441 179.155 141.944 179.167C149.818 179.524 157.718 179.429 165.605 179.464C173.558 179.5 181.511 179.548 189.464 179.548C193.944 179.548 198.424 179.571 202.891 179.31C203.593 179.274 203.607 178.383 202.891 178.335Z" fill="#969696"/>
<path d="M172.418 185.336C164.557 184.967 156.631 185.241 148.771 185.264C140.963 185.288 133.13 185.264 125.323 185.514C120.856 185.657 116.362 185.609 111.895 185.621C111.445 185.621 111.445 186.251 111.895 186.251C127.602 186.322 143.296 186.584 159.003 186.643C163.484 186.655 167.964 186.75 172.431 186.536C173.279 186.5 173.279 185.383 172.418 185.336Z" fill="#969696"/>
<path d="M252.359 33.4869C244.777 32.952 236.983 33.368 229.374 33.368C222.19 33.368 215.006 33.3799 207.835 33.3799C193.228 33.3918 178.634 33.3918 164.027 33.4036C149.42 33.4155 134.826 33.4393 120.219 33.4987C105.453 33.5582 90.4088 32.9996 75.6957 34.1406C72.4747 34.3902 72.4615 38.3243 75.6957 38.5857C90.4088 39.7268 105.453 39.1681 120.219 39.2276C134.826 39.287 149.42 39.3108 164.027 39.3227C178.634 39.3345 193.228 39.3345 207.835 39.3464C215.019 39.3464 222.203 39.3583 229.374 39.3583C236.983 39.3583 244.764 39.7743 252.359 39.2395C256.534 38.9304 256.547 33.784 252.359 33.4869Z" fill="black"/>
<path d="M217.008 50.0668C214.582 48.3434 212.66 48.6524 209.585 48.6524C206.722 48.6524 203.859 48.6524 200.996 48.6524L183.101 48.6643C170.933 48.6762 158.765 48.6762 146.597 48.688L110.808 48.7118C104.605 48.7118 98.4017 48.7712 92.1983 48.8426C87.0554 48.902 80.1627 48.0106 75.4969 50.1143C74.2642 50.6729 74.2642 52.4439 75.4969 53.0025C80.176 55.1181 87.0421 54.2148 92.1983 54.2742C98.1631 54.3456 104.128 54.3931 110.093 54.405C122.261 54.4169 134.429 54.4169 146.597 54.4288L182.386 54.4525C188.589 54.4525 194.792 54.4644 200.996 54.4644C203.859 54.4644 206.722 54.4644 209.585 54.4644C212.58 54.4644 214.608 54.7497 217.008 53.05C217.949 52.3963 217.935 50.7324 217.008 50.0668Z" fill="black"/>
<path d="M161.708 141.123C159.627 140.6 157.97 138.52 157.121 136.797C156.22 134.955 156.392 132.542 158.116 131.258C159.216 130.438 160.74 130.224 162.172 130.355C166.612 130.795 170.032 134.372 171.251 138.235C172.471 142.086 171.954 146.198 171.437 150.18C171.052 153.092 170.668 156.004 170.284 158.916C169.541 164.573 170.377 170.492 170.377 176.197C170.377 176.911 170.403 177.647 170.787 178.265C171.503 179.406 173.12 179.727 174.565 179.929C181.497 180.928 188.629 182.128 195.68 181.902C201.34 181.724 204.574 180.215 209.731 183.804C212.554 185.765 214.715 188.82 214.357 192.005C214.158 193.717 213.257 195.321 212.037 196.664C207.225 201.93 198.636 202.643 191.041 202.476C182.081 202.274 173.134 201.418 164.319 199.921C155.372 198.388 149.129 194.37 148.373 185.872C147.657 177.826 150.454 169.791 152.893 162.149C155.16 155.041 159.587 148.492 161.615 141.444C161.655 141.313 161.681 141.218 161.708 141.123Z" fill="#FBC2AA"/>
<path d="M211.945 187.916C211.878 187.559 211.812 187.203 211.746 186.858C211.176 183.328 210.632 178.918 214.914 177.813C217.737 177.076 222.681 177.409 224.563 175.056C225.173 174.295 225.345 173.344 225.491 172.429C225.716 171.121 225.929 169.802 226.154 168.495C217.949 169.755 214.529 163.17 213.495 157.013C212.435 150.726 212.66 142.881 218.837 138.674C222.774 135.988 228.288 135.346 232.914 136.915C237.54 138.484 241.159 142.168 242.471 146.447C243.438 149.609 242.285 150.762 242.086 154.03C241.848 157.726 242.219 164.109 241.994 167.805C241.835 170.289 242.073 173.19 243.584 175.353C244.274 176.339 245.109 177.183 246.275 177.718C247.123 178.11 249.324 177.896 249.854 178.419C252.863 181.379 255.673 184.516 258.934 187.238C251.232 190.138 243.187 192.206 234.955 193.466C229.189 194.358 217.525 197.412 213.548 191.909C212.674 190.697 212.236 189.318 211.945 187.916Z" fill="#FBC2AA"/>
<path d="M280.155 205.329C279.333 196.213 274.773 186.871 265.508 182.306C262.101 180.631 258.35 179.62 254.586 178.824C252.65 178.408 250.689 178.051 248.753 177.659C246.58 177.219 246.142 177.683 244.658 179.145C241.596 182.188 236.758 183.543 232.211 183.115C229.335 182.853 226.564 181.914 224.099 180.583C221.422 179.133 220.48 177.35 217.087 177.517C206.814 178.04 196.555 178.872 186.336 180.013C187.091 188 187.688 199.315 189.543 207.147C194.951 206.66 206.907 205.59 206.894 207.064C206.881 209.31 206.934 211.569 207.013 213.815C207.186 218.201 207.491 222.587 207.689 226.972C207.901 231.631 208.286 236.291 208.75 240.926C209.28 246.215 210.181 251.409 211.494 256.543C224.855 260.537 240.098 259.562 254.427 258.398C258.509 258.065 262.751 257.696 266.29 255.83C276.231 250.577 276.655 235.031 278.074 225.986C279.174 219.021 280.791 212.472 280.155 205.329Z" fill="#FF6652"/>
<path d="M177.654 296.17C177.826 295.944 178.012 295.718 178.197 295.504C181.657 291.522 187.635 288.931 192.526 286.59C197.921 284.011 203.952 281.883 210.168 282.204C215.775 282.489 223.556 285.9 224.723 291.225C224.855 291.831 224.908 292.473 224.643 293.032C223.98 294.434 221.873 294.553 220.176 294.565C212.939 294.624 205.98 296.621 199.22 298.772C195.747 299.878 192.287 301.054 188.762 302.065C185.62 302.968 177.985 306.926 175.785 302.814C174.579 300.567 176.262 298 177.654 296.17Z" fill="black"/>
<path d="M146.279 242.708C149.209 239.808 153.371 237.93 157.639 237.205C163.63 236.195 169.82 237.169 175.705 238.631C188.165 241.709 199.843 246.892 212.355 249.78C217.909 251.063 221.528 250.588 226.949 250.196C233.829 249.697 240.893 250.303 247.813 249.934C254.281 249.59 261.28 249.138 267.337 250.742C268.133 250.267 268.928 249.803 269.723 249.328C276.483 245.346 283.23 241.389 291.713 242.839C298.381 243.98 304.823 247.01 308.945 251.931C313.332 257.161 312.02 263.995 308.083 269.213C304.822 273.527 300.011 276.712 295.027 279.387C277.835 288.633 259.053 294.303 238.759 293.043C236.042 292.877 232.848 292.841 230.886 294.802C230.157 295.539 229.72 299.568 228.089 299.39C226.074 299.176 222.204 298.677 220.308 298.059C210.049 294.743 199.803 291.415 189.544 288.099C180.53 285.175 171.464 282.239 163.259 277.806C156.154 273.979 149.725 268.797 145.961 262.081C143.244 257.244 141.017 250.873 143.853 245.846C144.516 244.693 145.325 243.647 146.279 242.708Z" fill="#FF0000"/>
<path d="M273.541 256.614C267.775 259.193 261.744 260.846 256.216 263.912C250.702 266.967 245.48 270.532 239.475 272.85C235.591 274.347 229.945 274.93 226.22 276.594" stroke="black" stroke-width="0.5" stroke-miterlimit="10"/>
<path d="M231.018 294.101C231.032 294.09 231.032 294.066 231.045 294.054C231.588 292.937 232.119 291.819 232.662 290.702C233.736 288.48 234.809 286.269 235.87 284.046C235.989 283.797 245.201 287.992 245.997 288.575C246.355 288.836 246.699 289.121 246.925 289.478C247.243 289.965 247.309 290.548 247.388 291.106C247.601 292.675 247.866 294.28 247.534 295.837C247.203 297.394 246.129 298.927 244.459 299.426C243.187 299.807 241.808 299.533 240.509 299.272C238.03 298.761 235.605 298.285 233.166 297.643C232.463 297.453 230.621 297.394 230.117 296.942C229.481 296.383 230.74 294.696 231.018 294.101Z" fill="#FBC2AA"/>
<path d="M241.278 285.746C241.954 285.829 242.657 285.853 243.386 285.793C244.87 285.686 246.328 285.306 247.813 285.33C250.769 285.377 252.055 287.445 253.287 289.537C255.461 293.234 259.385 295.932 262.566 298.903C266.556 302.623 268.862 306.129 268.213 311.454C267.987 313.332 267.139 315.483 265.111 315.994C263.242 316.47 261.399 315.293 259.902 314.188C255.832 311.193 251.75 308.209 247.68 305.214C245.825 303.847 243.929 302.029 241.822 301.007C240.483 300.365 238.959 299.889 237.567 299.26C239.065 294.814 240.324 290.31 241.278 285.746Z" fill="black"/>
<path d="M220.481 259.039C219.739 258.706 219.169 258.1 218.731 256.971C217.989 255.069 218.426 252.823 219.619 251.147C221.157 248.984 223.98 247.32 226.777 246.797C229.653 246.25 232.437 245.335 235.366 244.8C237.474 244.42 239.542 243.897 241.609 243.374C247.932 241.781 254.745 240.569 260.75 238.192C261.121 238.049 261.492 237.883 261.704 237.574C261.982 237.158 261.863 236.635 261.73 236.159C259.716 228.897 257.873 221.6 256.19 214.266C255.62 211.77 255.063 209.251 255.09 206.707C255.143 202.084 257.21 197.508 260.763 194.156C262.937 192.1 265.946 190.448 269.074 190.769C271.645 191.042 273.859 192.635 275.317 194.572C276.775 196.509 277.557 198.756 278.339 200.966C280.963 208.442 284.012 216.013 285.192 223.787C285.497 225.819 285.483 227.875 285.47 229.919C285.43 235.803 285.258 242.055 281.653 246.963C269.776 263.08 242.232 261.095 223.768 259.55C222.39 259.467 221.329 259.419 220.481 259.039Z" fill="#FBC2AA"/>
<path d="M225.703 133.849C222.363 134.3 219.155 135.513 216.464 137.486C213.469 139.684 212.528 142.014 211.905 145.461C211.865 145.687 211.838 145.936 211.984 146.126C212.143 146.328 212.461 146.376 212.74 146.412C217.512 146.923 222.31 147.291 227.121 147.517C227.652 147.541 228.195 147.565 228.686 147.386C229.905 146.947 230.382 145.461 231.628 145.081C231.8 146.519 231.681 147.992 231.297 149.395C231.124 150.013 230.899 150.667 231.124 151.273C231.575 152.497 233.179 152.473 234.213 153.032C235.499 153.721 236.745 155.124 237.235 156.384C237.885 158.048 238.176 159.866 239.316 161.34C239.608 161.72 239.952 162.065 240.284 162.41C240.907 163.051 241.516 163.693 242.139 164.335C242.524 164.074 242.709 163.658 242.868 163.265C244.167 160.128 245.546 157.014 246.368 153.757C247.11 150.833 247.084 147.719 246.235 144.819C245.864 143.512 245.188 142.192 244.512 140.992C244.141 140.326 243.65 139.625 243.173 139.007C243.027 138.817 241.596 137.141 241.344 137.284C241.662 137.093 242.06 136.737 241.914 136.357C241.742 135.905 240.575 136.226 240.257 136.38C240.443 136.119 240.708 135.893 240.893 135.632C241.079 135.37 241.198 135.025 241.052 134.74C240.96 134.562 240.774 134.431 240.575 134.336C240.058 134.11 239.435 134.17 238.945 134.419C238.428 134.681 237.991 135.156 237.871 135.667C233.948 134.122 230.038 133.266 225.703 133.849Z" fill="black"/>
<path d="M174.207 247.652C185.752 252.335 195.044 260.465 205.542 266.812C215.351 272.731 226.22 277.081 237.023 281.407C236.453 282.513 236.228 283.618 235.671 284.723" stroke="black" stroke-width="0.5" stroke-miterlimit="10"/>
<path d="M223.516 159.308C222.827 161.328 220.07 162.552 217.869 161.827" stroke="#1C1C1B" stroke-width="0.5" stroke-miterlimit="10"/>
<path d="M235.167 158.713C239.422 159.664 242.073 155.647 240.774 153.02C238.971 149.371 233.271 149.978 232.224 153.817" fill="#FBC2AA"/>
<path d="M237.341 152.723C236.546 152.521 235.618 152.64 234.942 153.032C234.266 153.424 233.881 154.066 233.908 154.696" stroke="#1C1C1B" stroke-width="0.5" stroke-miterlimit="10"/>
<path d="M269.02 186.252C261.253 186.989 254.135 191.826 251.259 198.352C248.276 205.126 249.761 212.733 251.285 219.888C256.296 219.757 260.723 220.067 265.707 219.187C272.175 218.046 278.458 216.251 284.542 214.041C282.739 203.688 279.399 193.764 271.154 186.3C270.359 185.563 270.16 186.145 269.02 186.252Z" fill="#FF6652"/>
<path d="M181.445 119.301C175.003 121.832 169.17 125.101 163.643 128.999C160.966 130.889 158.434 133.017 156.048 135.192C154.776 136.357 153.569 137.593 152.376 138.817C152.125 138.139 151.873 137.474 151.621 136.808C150.812 134.645 149.898 132.541 148.89 130.449C147.949 128.465 146.915 126.515 145.802 124.602C144.635 122.593 143.509 119.907 141.123 118.897C139.479 118.196 138.008 119.075 137.783 120.62C137.451 122.902 139.466 125.018 140.606 126.943C141.733 128.857 142.78 130.794 143.734 132.779C144.609 134.574 145.417 136.464 146.146 138.341C146.942 140.374 147.499 142.501 148.334 144.51C149.155 146.483 152.018 146.97 153.357 145.092C155.094 142.644 157.533 140.421 159.746 138.306C162.013 136.143 164.385 134.098 166.811 132.078C171.702 128.001 176.911 124.174 182.306 120.644C183.221 120.05 182.465 118.897 181.445 119.301Z" fill="#9C4DF4"/>
<path d="M256.627 264.732H191.187C190.232 264.732 189.45 264.031 189.45 263.175C189.45 262.319 190.232 261.618 191.187 261.618H256.627C257.581 261.618 258.363 262.319 258.363 263.175C258.363 264.031 257.581 264.732 256.627 264.732Z" fill="black"/>
<path d="M246.924 262.616H189.649L177.759 236.278C177.375 235.422 178.077 234.483 179.111 234.483H233.245C233.841 234.483 234.371 234.804 234.597 235.304L246.924 262.616Z" fill="black"/>
<path d="M206.311 248.567C206.921 249.994 208.975 251.147 210.897 251.147C212.819 251.147 213.893 249.994 213.283 248.567C212.673 247.141 210.619 245.988 208.697 245.988C206.775 245.988 205.701 247.141 206.311 248.567Z" stroke="white" stroke-width="0.5" stroke-miterlimit="10"/>
<path d="M225.73 168.341C225.836 169.327 225.743 170.314 225.637 171.288C225.703 171.276 225.783 171.253 225.849 171.241C228.103 170.611 229.958 168.971 230.913 167.033C229.335 167.818 227.546 168.257 225.73 168.341Z" fill="black"/>
<path d="M161.814 141.277C159.335 139.755 156.83 138.222 154.829 136.225C154.418 135.821 154.033 135.37 153.927 134.835C153.821 134.3 154.126 133.67 154.709 133.527C155.359 133.373 155.955 133.86 156.459 134.276C158.354 135.857 160.86 136.867 163.444 137.081" fill="white"/>
<path d="M161.814 141.277C159.335 139.755 156.83 138.222 154.829 136.225C154.418 135.821 154.033 135.37 153.927 134.835C153.821 134.3 154.126 133.67 154.709 133.527C155.359 133.373 155.955 133.86 156.459 134.276C158.354 135.857 160.86 136.867 163.444 137.081" stroke="#1C1C1B" stroke-width="0.5" stroke-miterlimit="10"/>
<path d="M248.29 306.26C248.396 306.201 248.502 306.129 248.608 306.058C248.727 305.975 248.86 305.927 248.992 305.868C249.257 305.761 249.509 305.654 249.774 305.559C249.668 305.606 249.549 305.642 249.443 305.69C249.933 305.499 250.411 305.262 250.835 304.976C250.941 304.905 251.034 304.834 251.14 304.751C251.312 304.608 251.484 304.477 251.723 304.418C252.147 304.299 252.677 304.489 252.903 304.834C253.101 305.143 253.088 305.487 252.916 305.797C252.876 305.868 252.823 305.927 252.783 305.999C252.69 306.129 252.598 306.26 252.492 306.379C252.227 306.7 251.948 307.009 251.63 307.282C251.312 307.567 250.967 307.829 250.583 308.031C250.344 308.162 250.092 308.304 249.814 308.352C249.536 308.411 249.244 308.435 248.966 308.459C248.847 308.447 248.727 308.435 248.621 308.411C248.449 308.376 248.303 308.304 248.17 308.197C247.958 308.043 247.76 307.829 247.693 307.579C247.547 307.056 247.786 306.557 248.29 306.26Z" fill="#FF6652"/>
<path d="M245.122 302.992C245.188 302.79 245.307 302.612 245.466 302.457C245.758 302.16 246.063 301.863 246.354 301.554C246.487 301.423 246.633 301.34 246.818 301.292C246.991 301.209 247.176 301.173 247.375 301.185C247.574 301.173 247.759 301.221 247.932 301.292C248.104 301.34 248.263 301.435 248.396 301.554C248.475 301.637 248.541 301.732 248.621 301.815C248.754 302.017 248.82 302.231 248.82 302.457C248.807 302.576 248.78 302.683 248.767 302.802C248.701 303.016 248.581 303.206 248.396 303.372C248.064 303.646 247.733 303.907 247.388 304.169C247.269 304.287 247.123 304.371 246.951 304.418C246.792 304.489 246.62 304.525 246.434 304.525C246.248 304.537 246.076 304.501 245.917 304.418C245.745 304.371 245.599 304.287 245.48 304.169C245.413 304.085 245.334 304.002 245.267 303.919C245.148 303.729 245.082 303.527 245.082 303.301C245.082 303.206 245.095 303.099 245.122 302.992Z" fill="#FF6652"/>
<path d="M241.198 299.889C241.41 299.604 241.623 299.319 241.835 299.033C241.914 298.903 242.033 298.784 242.166 298.713C242.285 298.606 242.444 298.546 242.603 298.499C242.776 298.451 242.948 298.439 243.12 298.475C243.293 298.487 243.452 298.522 243.598 298.617C243.69 298.677 243.77 298.736 243.863 298.796C244.022 298.938 244.141 299.117 244.194 299.307C244.207 299.414 244.221 299.509 244.247 299.616C244.247 299.83 244.181 300.02 244.075 300.198C243.863 300.484 243.651 300.769 243.438 301.054C243.359 301.185 243.24 301.304 243.107 301.375C242.988 301.482 242.829 301.541 242.67 301.589C242.497 301.636 242.325 301.648 242.153 301.613C241.98 301.601 241.821 301.565 241.676 301.47C241.583 301.411 241.503 301.351 241.41 301.292C241.251 301.149 241.132 300.971 241.079 300.781C241.066 300.674 241.053 300.579 241.039 300.472C241.013 300.27 241.079 300.068 241.198 299.889Z" fill="#FF6652"/>
<path d="M195.084 297.144C195.163 296.894 195.376 296.633 195.627 296.514C195.906 296.383 196.237 296.324 196.542 296.407C196.635 296.443 196.728 296.478 196.82 296.514C196.993 296.609 197.138 296.74 197.245 296.894C197.443 297.132 197.655 297.37 197.854 297.607C197.96 297.726 198.08 297.833 198.186 297.94C198.239 297.988 198.292 298.035 198.331 298.083C198.424 298.166 198.517 298.261 198.583 298.368C198.65 298.463 198.703 298.594 198.742 298.701C198.835 298.962 198.915 299.224 199.007 299.485C199.113 299.806 198.968 300.151 198.676 300.353C198.398 300.543 197.974 300.591 197.655 300.412C197.443 300.294 197.244 300.175 197.032 300.056C196.979 300.02 196.926 299.996 196.873 299.961C196.661 299.83 196.489 299.687 196.356 299.485C196.277 299.378 196.211 299.271 196.131 299.164C195.853 298.748 195.508 298.368 195.19 297.976C195.031 297.75 195.018 297.382 195.084 297.144Z" fill="#FF6652"/>
<path d="M200.148 295.587C200.227 295.337 200.439 295.076 200.691 294.957C201.102 294.755 201.619 294.6 201.911 295.004C202.375 295.658 202.839 296.312 203.316 296.965C203.687 297.488 204.071 298.095 203.846 298.677C203.78 298.867 203.634 299.045 203.422 299.14C203.13 299.259 202.786 299.176 202.494 299.033C201.99 298.784 201.712 298.344 201.407 297.916C201.328 297.809 201.261 297.702 201.182 297.595C200.903 297.179 200.559 296.799 200.241 296.407C200.095 296.193 200.068 295.824 200.148 295.587Z" fill="#FF6652"/>
<path d="M190.432 298.927C190.485 298.772 190.591 298.63 190.723 298.523C190.988 298.297 191.346 298.143 191.717 298.154C192.075 298.166 192.473 298.273 192.711 298.523C193.242 299.093 193.772 299.652 194.289 300.223C194.421 300.341 194.527 300.472 194.58 300.627C194.673 300.781 194.713 300.936 194.7 301.114C194.713 301.292 194.66 301.447 194.58 301.601C194.527 301.756 194.421 301.898 194.289 302.005C194.024 302.231 193.666 302.386 193.295 302.374C192.937 302.362 192.539 302.255 192.3 302.005C191.77 301.435 191.24 300.876 190.723 300.306C190.591 300.187 190.485 300.056 190.432 299.902C190.339 299.747 190.299 299.593 190.312 299.414C190.299 299.236 190.339 299.082 190.432 298.927Z" fill="#FF6652"/>
<path d="M306.731 257.601C306.122 258.695 306.44 260.062 305.857 261.167C305.432 261.987 304.584 262.558 304.001 263.306C303.1 264.471 302.954 266.111 303.815 267.3C304.664 268.489 306.533 269.047 307.951 268.417C309.078 267.918 309.727 266.825 310.178 265.767C311.106 263.58 312.087 260.157 311.291 257.827C310.628 255.937 307.871 255.533 306.731 257.601Z" fill="black"/>
<path d="M144.238 249.459C145.259 248.722 146.77 248.544 147.949 249.09C149.116 249.637 149.845 250.885 149.593 252.038C149.46 252.668 149.063 253.262 149.036 253.904C148.997 254.724 149.553 255.473 149.845 256.257C150.282 257.422 150.097 258.801 149.182 259.704C148.268 260.619 146.611 260.916 145.471 260.251C144.265 259.538 143.96 258.099 143.734 256.816C143.337 254.51 141.759 251.242 144.238 249.459Z" fill="black"/>
<path d="M209.148 204.413C209.028 204.306 208.79 204.282 208.67 204.413C208.352 204.769 208.008 205.126 207.716 205.494C207.57 205.672 207.424 205.851 207.279 206.029C207.133 206.207 206.96 206.386 206.828 206.588C206.669 206.825 207.027 207.063 207.252 206.873C207.424 206.718 207.583 206.54 207.743 206.374C207.902 206.207 208.061 206.041 208.22 205.875C208.551 205.542 208.843 205.185 209.148 204.841C209.254 204.71 209.28 204.543 209.148 204.413Z" fill="black"/>
<path d="M258.827 219.662C257.82 219.674 256.839 219.852 255.898 220.161C255.606 218.366 255.315 216.583 255.01 214.789C254.692 212.899 254.307 211.009 254.016 209.107C254.002 209.012 253.817 209.036 253.83 209.131C254.069 211.069 254.214 213.006 254.466 214.943C254.718 216.845 254.996 218.747 255.288 220.648C255.315 220.803 255.553 220.91 255.699 220.862C256.693 220.494 257.727 220.304 258.814 220.28C259.278 220.268 259.278 219.662 258.827 219.662Z" fill="black"/>
<path d="M114.427 280.694C112.532 283.856 108.502 285.389 104.804 286.161C103.691 286.399 102.564 286.577 101.437 286.768C100.549 286.91 99.6081 287.005 98.7597 287.302C96.8245 287.968 98.9453 289.038 99.9262 289.43C100.509 289.668 100.655 290.428 100.35 290.892C99.9925 291.415 99.3165 291.51 98.72 291.272C97.9115 290.939 97.0234 290.452 96.4004 289.822L95.1412 293.626H76.1335L74.6488 269.522L103.306 269.094L102.551 271.364C105.719 270.544 109.616 270.235 112.452 271.946C115.66 273.896 116.19 277.735 114.427 280.694ZM111.167 273.896C108.529 272.232 104.672 272.861 101.835 273.693C101.808 273.705 101.782 273.717 101.755 273.717L97.8982 285.306C98.561 285.08 99.29 284.925 99.9395 284.806C103.651 284.129 107.853 283.654 110.729 281.205C112.89 279.375 114.056 275.726 111.167 273.896Z" fill="#FF0000"/>
<path d="M97.8053 275.06C97.2088 276.938 96.6124 278.804 96.0954 280.694C95.9894 281.074 96.6124 281.217 96.7449 280.848C97.4209 278.994 98.0174 277.116 98.6138 275.25C98.7596 274.799 97.9511 274.608 97.8053 275.06Z" fill="black"/>
<path d="M95.115 284.093C94.8101 285.032 94.5052 285.959 94.2004 286.898C93.8955 287.837 93.6702 288.788 93.4051 289.727C93.299 290.119 93.9353 290.274 94.0678 289.894C94.3992 288.967 94.7704 288.039 95.062 287.112L95.9368 284.296C96.0826 283.82 95.2608 283.618 95.115 284.093Z" fill="black"/>
<path d="M94.0147 281.396C93.9087 281.372 93.7629 281.419 93.7364 281.538C93.6568 281.942 93.5906 282.346 93.511 282.739C93.4978 282.846 93.5375 282.964 93.6701 282.988C93.7761 283.012 93.922 282.964 93.9485 282.846C94.028 282.441 94.0943 282.037 94.1738 281.645C94.187 281.538 94.134 281.419 94.0147 281.396Z" fill="black"/>
<path d="M281.03 240.593C280.857 242.803 279.717 244.86 278.034 246.452C277.835 246.642 278.14 246.904 278.352 246.737C280.274 245.18 281.335 242.91 281.414 240.593C281.414 240.367 281.043 240.379 281.03 240.593Z" fill="black"/>
<path d="M156.366 192.04C155.345 191.624 154.325 191.196 153.304 190.792C153.092 190.709 152.893 190.994 153.118 191.078C154.139 191.506 155.16 191.91 156.18 192.326C156.392 192.409 156.591 192.124 156.366 192.04Z" fill="black"/>
<path d="M89.0967 219.579C86.4325 222.598 83.185 225.165 80.3086 228.018C77.26 231.037 74.9139 234.567 71.8652 237.585C69.2142 240.224 66.0462 242.447 62.5734 244.146C60.1212 245.347 54.4083 248.235 51.4922 247.593C45.8456 246.333 50.074 237.811 51.8501 235.006C53.9709 231.643 56.9533 228.731 60.108 226.128C63.4085 223.418 66.9874 221.005 70.5397 218.581C74.5295 215.847 78.506 213.125 82.4958 210.391C83.4634 209.738 84.4045 209.048 85.3986 208.418C86.2204 207.895 87.1218 207.468 88.1291 207.361C89.8656 207.194 91.4429 208.216 92.278 209.524C94.4651 212.959 91.4296 216.94 89.0967 219.579Z" fill="#FF0000"/>
<path d="M28.6806 225.034C29.4891 221.136 31.2521 217.451 32.2595 213.6C33.5982 208.49 33.5982 203.177 34.6453 198.018C35.6925 192.86 38.0519 187.571 42.8237 184.552C44.1492 183.72 45.6603 183.066 47.2641 182.959C50.167 182.757 52.9373 184.374 54.5809 186.537C56.2113 188.688 56.8873 191.315 57.2849 193.906C58.8623 204.092 56.6355 214.729 51.0286 223.703C49.2789 226.508 47.2111 229.147 45.6868 232.047C43.6588 235.886 42.5984 240.117 42.3863 244.36C42.2935 246.202 42.3332 248.128 41.4319 249.792C40.5703 251.408 37.4157 253.869 35.2418 252.835C33.3066 251.907 31.9679 246.452 31.2786 244.693C28.8529 238.417 27.3021 231.666 28.6806 225.034Z" fill="#FF0000"/>
<path d="M9.67259 224.963C9.27494 223.061 8.94357 220.874 10.3353 219.4C12.2573 217.356 16.1278 218.2 18.2088 220.113C20.608 222.312 21.6021 225.462 21.907 228.528C22.2118 231.595 21.9335 234.685 22.1986 237.74C22.6095 242.434 24.3061 246.939 25.4063 251.539C26.4137 255.722 24.505 258.575 21.0454 254.439C18.6993 251.646 16.9364 248.413 15.4916 245.18C12.6152 238.69 11.1174 231.785 9.67259 224.963Z" fill="#FF0000"/>
<path d="M74.5427 222.051C73.4956 223.763 72.3159 225.367 70.9109 226.853C69.5058 228.327 67.9549 229.694 66.3643 231.013C63.1698 233.652 59.7236 236.052 56.6881 238.846C55.2301 240.189 53.8648 241.615 52.6984 243.172C51.3331 244.99 50.3257 246.975 49.5569 249.055C48.6423 251.516 47.9531 254.047 47.1976 256.555C46.4023 259.17 45.607 261.796 44.8117 264.411C43.9501 267.264 43.0885 270.104 42.3993 272.993C42.0679 274.395 41.7762 275.81 41.5377 277.236C41.4316 277.901 41.3521 278.579 41.2725 279.256C41.2328 279.625 41.2062 279.981 41.1797 280.35C41.1665 280.492 41.1666 280.635 41.1666 280.778C41.2063 280.445 41.2726 280.112 41.3123 279.803C41.4184 279.054 41.5377 278.305 41.6702 277.557C41.8956 276.285 42.1739 275.025 42.4788 273.777C43.1018 271.257 43.8706 268.785 44.6394 266.301C46.2167 261.202 47.7145 256.08 49.3846 251.016C50.1401 248.734 51.0415 246.488 52.4201 244.432C53.5202 242.803 54.8457 241.318 56.2905 239.927C59.2464 237.098 62.6397 234.686 65.9004 232.142C69.4528 229.361 73.1642 226.294 75.2585 222.432C75.4838 221.992 74.8078 221.623 74.5427 222.051Z" fill="#1C1C1B"/>
<path d="M41.1267 281.36C41.1532 281.17 41.1532 280.968 41.1665 280.766C41.1267 280.968 41.1134 281.17 41.1267 281.36Z" fill="#1C1C1B"/>
<path d="M41.1401 281.717C41.1269 281.598 41.1269 281.479 41.1269 281.36C41.1136 281.479 41.0871 281.598 41.0606 281.705C41.0341 281.764 41.1401 281.764 41.1401 281.717Z" fill="#1C1C1B"/>
<path d="M39.4433 230.264C39.8277 225.712 40.7291 221.183 42.4788 216.881C42.5318 216.75 42.3065 216.691 42.2535 216.821C39.0325 224.428 38.5553 232.617 38.6613 240.676C38.7144 244.824 38.9131 248.972 38.9529 253.12C39.0059 257.422 38.8337 261.713 38.4228 265.992C37.9853 270.52 37.3491 275.025 36.6864 279.529C31.159 269.034 26.1088 258.337 21.6286 247.45C20.3163 244.253 19.0438 241.032 17.8244 237.799C17.6653 237.383 16.9363 237.562 17.0821 237.978C21.3767 249.435 26.2679 260.715 31.7554 271.756C33.3063 274.87 34.8969 277.96 36.5538 281.039C36.7526 281.419 37.2961 281.17 37.3358 280.849C38.5686 272.184 39.7217 263.508 39.6555 254.76C39.5892 246.618 38.7541 238.441 39.4433 230.264Z" fill="#1C1C1B"/>
<path d="M21.2713 267.585C23.3921 276.345 24.8369 285.52 23.3126 294.339C26.7324 294.351 43.9772 294.434 49.5311 294.387C49.4648 293.614 49.3985 292.854 49.3587 292.081C49.0406 286.614 49.4383 281.111 51.2542 275.857C51.6916 274.586 52.6062 270.449 53.1895 269.213L53.0834 267.585H21.2713Z" fill="#FF6652"/>
<path d="M54.4087 262.724L20.3034 262.771C20.0118 262.771 19.7335 262.795 19.4552 262.842V269.914C19.7335 269.962 20.0118 269.986 20.3034 269.986L53.6929 269.926L54.4087 262.724Z" fill="#1A0400"/>
<path d="M48.2186 273.456C47.7415 273.955 47.3703 274.585 47.0389 275.167C46.7076 275.75 46.4292 276.368 46.1641 276.986C45.6339 278.257 45.3157 279.541 45.1699 280.884C45.1169 281.443 46.1641 281.585 46.2834 281.015C46.5352 279.779 46.8666 278.531 47.3172 277.33C47.5426 276.736 47.8077 276.154 48.0993 275.571C48.3777 275.001 48.7355 274.442 49.0006 273.86C49.173 273.479 48.5103 273.147 48.2186 273.456Z" fill="#1C1C1B"/>
<path d="M45.8059 284.426C45.8191 284.022 45.1166 284.022 45.1033 284.426C45.0238 286.47 44.5864 288.491 44.6527 290.547C44.6792 291.201 45.6865 291.165 45.7528 290.547C46.0046 288.503 45.7263 286.47 45.8059 284.426Z" fill="#1C1C1B"/>
<path d="M43.5922 292.592C41.2328 292.247 38.8072 292.14 36.4346 292.402C35.6393 292.485 35.7851 293.471 36.5804 293.376C38.8735 293.103 41.1931 293.043 43.4862 293.281C43.9237 293.329 44.0296 292.651 43.5922 292.592Z" fill="#1C1C1B"/>
<path d="M321.152 203.153C318.767 204.103 315.771 205.874 315.413 208.406C315.307 209.155 314.008 209.488 313.809 208.596C313.504 207.241 312.828 206.005 311.715 205.03C310.562 204.008 309.011 203.569 307.765 202.653C307.38 202.368 307.593 201.714 308.07 201.631C310.509 201.203 313.133 200.003 314.22 197.959C314.101 197.59 314.008 197.198 313.968 196.794C313.915 196.247 314.472 195.795 315.029 195.712C315.652 195.629 316.169 195.986 316.367 196.497C316.898 197.887 317.653 199.111 318.594 200.252C319.39 200.871 320.291 201.405 321.139 201.928C321.577 202.214 321.736 202.927 321.152 203.153Z" fill="#D9E0FC"/>
<path d="M330.245 217.082C329.675 216.583 329.066 216.108 328.469 215.644C328.787 215.502 329.119 215.347 329.437 215.192C329.861 214.979 330.033 214.432 329.768 214.063C329.476 213.647 328.986 213.588 328.509 213.766C328.363 213.826 328.217 213.885 328.085 213.945C328.257 212.994 328.443 212.031 328.681 211.08C328.867 210.331 327.608 210.01 327.395 210.759C327.091 211.853 326.746 212.946 326.415 214.028C325.845 213.588 325.275 213.136 324.705 212.697C324.4 212.459 323.949 212.435 323.658 212.697C323.366 212.958 323.379 213.374 323.658 213.635C324.201 214.158 324.744 214.681 325.275 215.216C325.01 215.347 324.731 215.478 324.479 215.632C324.055 215.87 323.591 216.06 323.141 216.262C322.743 216.44 322.624 216.952 322.836 217.284C323.074 217.653 323.565 217.736 323.976 217.546C324.387 217.356 324.811 217.142 325.235 216.999C325.367 216.952 325.487 216.904 325.606 216.856C325.54 217.094 325.473 217.332 325.42 217.558C325.208 218.354 324.89 219.174 324.851 219.994C324.797 221.147 326.693 221.325 327.051 220.256C327.289 219.519 327.289 218.711 327.395 217.95C327.422 217.76 327.462 217.57 327.488 217.368C327.873 217.736 328.27 218.104 328.681 218.473C329.092 218.829 329.834 218.877 330.245 218.473C330.643 218.093 330.683 217.463 330.245 217.082Z" fill="#D9E0FC"/>
<path d="M30.8673 54.1195C29.1309 53.4301 27.8452 52.194 27.1692 50.6132C26.9306 50.0427 26.069 50.0071 25.8437 50.6132C25.5521 51.3858 25.0484 52.0751 24.4784 52.6932C24.4519 52.7288 24.4254 52.7645 24.3989 52.7883C23.8819 53.1805 23.2854 53.5133 22.6359 53.7035C22.2118 53.8223 22.1853 54.3928 22.6359 54.4998C23.524 54.7137 24.2928 55.0346 24.9423 55.6289C25.5653 56.2113 25.9629 56.9244 26.1087 57.7089C26.228 58.3507 27.315 58.0773 27.2089 57.4355C27.0896 56.758 27.8849 56.2588 28.4549 55.9855C29.2369 55.6051 30.072 55.2842 30.8939 54.9514C31.2252 54.8207 31.2252 54.2621 30.8673 54.1195Z" fill="#D9E0FC"/>
<path d="M21.9334 37.5872C22.3443 37.7417 22.8745 38.0627 22.6889 38.4192C22.5829 38.6213 22.3177 38.6926 22.0791 38.752C19.5872 39.2987 14.9877 40.1545 15.1468 43.2685C15.1733 43.9341 14.0599 44.0411 13.8743 43.423C13.2248 41.141 11.6739 39.0729 9.31455 37.9795C8.78435 37.7299 9.07599 37.0761 9.59293 37.0405C10.9184 36.9573 12.1776 36.47 13.185 35.7093C14.3912 34.806 14.6961 34.2949 15.0009 32.9638C15.1202 32.4289 15.4649 31.8703 16.0614 31.7396C16.1674 31.7158 16.3 31.7039 16.406 31.7514C16.6181 31.8227 16.7109 32.0486 16.7771 32.2387C17.5989 34.3781 19.1895 36.3511 21.4164 37.3852C21.602 37.4446 21.761 37.5159 21.9334 37.5872Z" fill="#D9E0FC"/>
<path d="M291.686 70.1299C291.063 69.7852 289.99 69.6901 289.552 69.1434C288.77 68.145 290.679 68.1807 291.209 68.0499C292.19 67.8122 292.985 67.1348 293.515 66.3503C294.046 65.5659 294.337 64.6745 294.616 63.7949C295.278 64.1158 295.411 64.8765 295.689 65.5064C296.166 66.5761 297.253 67.3606 298.486 67.6458C298.923 67.7409 301.296 68.2044 299.652 68.9651C298.552 69.4643 297.306 69.8922 296.405 70.6766C295.835 71.1758 294.987 73.5648 294.337 73.4697C294.046 73.4341 293.833 73.2201 293.701 72.9824C293.582 72.7447 293.529 72.4832 293.449 72.2336C293.303 71.782 293.065 71.3541 292.733 70.9857C292.455 70.6529 292.097 70.3676 291.686 70.1299Z" fill="#D9E0FC"/>
<path d="M12.7345 74.9905C9.99074 75.7868 8.46644 78.1877 7.79043 80.541C7.59161 81.2066 6.38538 81.0759 6.4384 80.3746C6.51793 79.1266 6.00098 77.9381 5.11289 76.9872C4.05249 75.8462 2.76675 75.5015 1.29544 74.9073C1.08336 74.8241 0.831509 74.7052 0.791743 74.4913C0.751978 74.2892 0.937549 74.099 1.12312 73.9802C1.74611 73.5999 2.55468 73.6355 3.29696 73.5048C5.07314 73.2076 6.57094 71.8646 6.92882 70.2838C7.00836 69.951 7.03488 69.5944 7.19394 69.2854C7.353 68.9764 7.71088 68.7149 8.09527 68.7624C8.5592 68.8219 8.79774 69.2735 8.9568 69.6658C9.27492 70.4621 9.48705 71.2109 10.1631 71.817C10.9716 72.5421 11.9524 73.1126 12.9333 73.6117C13.5828 73.9445 13.3973 74.8003 12.7345 74.9905Z" fill="#D9E0FC"/>
</svg>
