<svg width="20" height="17" viewBox="0 0 20 17" fill="none" xmlns="http://www.w3.org/2000/svg">
<path d="M13.9286 0.75C12.3572 0.75 10.9604 1.44646 10 2.57821C9.03972 1.44646 7.5556 0.75 5.98417 0.75C3.19052 0.75 0.833374 3.10056 0.833374 5.88641C0.833374 6.06052 0.833374 6.23464 0.833374 6.40875C1.18258 10.6746 5.72226 14.2439 8.42861 15.898C8.86512 16.1592 9.38893 16.3333 10 16.3333C10.5238 16.3333 11.0477 16.1592 11.5715 15.898C14.2778 14.1569 18.8175 10.6746 19.1667 6.40875C19.1667 6.23464 19.1667 6.06052 19.1667 5.88641C19.1667 3.10056 16.8096 0.75 13.9286 0.75Z" fill="white" fill-opacity="0.8"/>
</svg>
