<svg width="45" height="40" viewBox="0 0 45 40" fill="none" xmlns="http://www.w3.org/2000/svg">
<path d="M33.0298 25.8333L27.9322 28.3333C26.4757 29 24.6551 29.5 22.8345 29.5C21.0139 29.5 19.3754 29.1667 17.7368 28.3333L12.4571 25.8333L10.6365 25L8.81592 24.1667V26.5C8.81592 28.3333 9.90828 30 11.7289 30.8333L19.5574 34.5C20.6498 34.8333 21.7421 35 22.8345 35C23.9269 35 25.0192 34.8333 25.9295 34.3333L33.7581 30.6667C35.5787 29.8333 36.671 28.1667 36.671 26.3333V24L34.8504 24.8333L33.0298 25.8333Z" fill="white"/>
<path d="M41.0403 13L26.1115 5.83333C25.0191 5.16667 23.9268 5 22.8344 5C21.742 5 20.6497 5.16667 19.5573 5.66667L4.62846 13C3.5361 13.5 2.80786 14.5 2.80786 15.5C2.80786 16.6667 3.5361 17.6667 4.62846 18.1667L8.99788 20.1667L10.8185 21L12.6391 21.8333L19.5573 25.1667C20.6497 25.6667 21.742 25.8333 22.8344 25.8333C23.9268 25.8333 25.0191 25.5 26.1115 25.1667L33.0297 21.8333L34.8503 21L36.6709 20.1667L41.0403 18.1667C42.1327 17.6667 42.8609 16.6667 42.8609 15.5C42.8609 14.5 42.1327 13.5 41.0403 13Z" fill="white"/>
</svg>
