<svg width="40" height="40" viewBox="0 0 40 40" fill="none" xmlns="http://www.w3.org/2000/svg">
<path d="M19.9999 3.33301C10.8333 3.33301 3.33325 10.7957 3.33325 19.9168V26.0527V28.0428V30.0328C3.33325 33.6813 6.16659 36.5005 9.83325 36.5005C13.4999 36.5005 16.3333 33.6813 16.3333 30.0328V25.8869C16.3333 22.4043 13.4999 19.4192 9.83325 19.4192C8.66659 19.5851 7.66659 19.9168 6.66659 20.4143V19.9168C6.66659 12.6199 12.6666 6.64976 19.9999 6.64976C27.3333 6.64976 33.3333 12.6199 33.3333 19.9168V20.4143C32.3333 19.9168 31.3333 19.5851 30.1666 19.5851C26.6666 19.5851 23.6666 22.4043 23.6666 26.0527V30.1987C23.6666 33.6813 26.4999 36.6663 30.1666 36.6663C33.6666 36.6663 36.6666 33.8471 36.6666 30.1987V28.2086V26.2186V19.9168C36.6666 10.7957 29.1666 3.33301 19.9999 3.33301Z" fill="white"/>
</svg>
