<svg width="781" height="807" viewBox="0 0 781 807" fill="none" xmlns="http://www.w3.org/2000/svg">
<path d="M109 0.901367L181.5 106.529L612 17.5794L701 185.177" stroke="#ECECEC" stroke-width="2"/>
<path d="M183 192.143C183 164.575 183 150.79 188.784 142.881C193.829 135.983 201.576 131.563 210.081 130.732C219.834 129.778 231.699 136.794 255.43 150.825L677.43 400.339C686.022 405.419 690.318 407.959 693.439 411.477C696.202 414.59 698.286 418.244 699.56 422.207C701 426.685 701 431.675 701 441.657V729C701 745.802 701 754.202 697.73 760.62C694.854 766.265 690.265 770.854 684.62 773.73C678.202 777 669.802 777 653 777H231C214.198 777 205.798 777 199.38 773.73C193.735 770.854 189.146 766.265 186.27 760.62C183 754.202 183 745.802 183 729V192.143Z" fill="url(#paint0_linear_28_2186)"/>
<g filter="url(#filter0_d_28_2186)">
<rect x="143" y="401" width="80" height="80" rx="10" fill="white"/>
</g>
<path d="M184.569 462.849C183.5 462.849 182.862 461.79 183.192 460.883L189.468 443.624C189.745 442.864 190.585 442.471 191.346 442.748C192.106 443.024 192.498 443.865 192.221 444.625L185.946 461.884C185.729 462.479 185.167 462.849 184.569 462.849Z" fill="#3AB4FB"/>
<path d="M200.259 462.849C199.663 462.849 199.102 462.481 198.884 461.889L192.545 444.629C192.266 443.87 192.656 443.028 193.415 442.75C194.174 442.47 195.016 442.86 195.295 443.619L201.634 460.878C201.991 461.85 201.259 462.849 200.259 462.849Z" fill="#1D9CFD"/>
<path d="M203.397 419.125H181.431C178.889 419.125 176.828 421.186 176.828 423.727V440.987C176.828 443.529 178.889 445.59 181.431 445.59H203.397C205.939 445.59 208 443.529 208 440.987V423.727C208 421.186 205.939 419.125 203.397 419.125Z" fill="#EFF6FE"/>
<path d="M203.398 419.125H192.222V445.59H203.398C205.939 445.59 208 443.529 208 440.987V423.727C208 421.186 205.939 419.125 203.398 419.125Z" fill="#D9E4EF"/>
<path d="M173.69 428.435C173.69 431.959 170.833 434.815 167.31 434.815C163.786 434.815 160.93 431.959 160.93 428.435C160.93 424.911 163.786 422.055 167.31 422.055C170.833 422.055 173.69 424.911 173.69 428.435Z" fill="#FFCFBE"/>
<path d="M181.56 443.867C180.837 443.505 180.544 442.625 180.905 441.901L184.828 434.056C185.19 433.332 186.07 433.039 186.793 433.401C187.517 433.763 187.81 434.643 187.448 435.366L183.526 443.211C183.163 443.936 182.283 444.228 181.56 443.867Z" fill="#FFB826"/>
<path d="M173.691 428.436C173.691 431.959 170.834 434.816 167.31 434.816V422.055C170.834 422.055 173.691 424.911 173.691 428.436Z" fill="#F9BCAA"/>
<path d="M200.259 427.547H184.569C183.76 427.547 183.104 426.891 183.104 426.082C183.104 425.273 183.76 424.617 184.569 424.617H200.259C201.068 424.617 201.724 425.273 201.724 426.082C201.724 426.891 201.068 427.547 200.259 427.547Z" fill="#3AB4FB"/>
<path d="M200.259 433.822H193.687C192.877 433.822 192.222 433.167 192.222 432.357C192.222 431.548 192.877 430.893 193.687 430.893H200.259C201.068 430.893 201.724 431.548 201.724 432.357C201.724 433.167 201.068 433.822 200.259 433.822Z" fill="#1D9CFD"/>
<path d="M200.259 440.099H193.687C192.877 440.099 192.222 439.443 192.222 438.634C192.222 437.825 192.877 437.169 193.687 437.169H200.259C201.068 437.169 201.724 437.825 201.724 438.634C201.724 439.443 201.068 440.099 200.259 440.099Z" fill="#1D9CFD"/>
<path d="M200.259 424.617H192.222V427.547H200.259C201.068 427.547 201.724 426.891 201.724 426.082C201.724 425.273 201.068 424.617 200.259 424.617Z" fill="#1D9CFD"/>
<path d="M172.017 462.849H162.603C161.794 462.849 161.138 462.194 161.138 461.384V453.196C159.316 452.583 158 450.859 158 448.832V444.125C158 441.635 158.969 439.296 160.729 437.541C162.456 435.81 164.855 434.815 167.31 434.815H168.604C171.174 434.815 172.68 435.757 174.791 436.806C177.115 437.962 180.015 439.404 181.864 440.325C183.571 441.173 184.388 443.162 183.774 444.962C183.772 444.967 183.77 444.973 183.768 444.979C183.398 446.072 182.57 446.953 181.494 447.396C180.416 447.835 179.207 447.788 178.171 447.27C176.695 446.532 174.87 445.62 173.482 444.926V461.384C173.482 462.194 172.826 462.849 172.017 462.849Z" fill="#FF7579"/>
<path d="M181.865 440.325C180.015 439.404 177.115 437.962 174.791 436.806C172.68 435.757 171.174 434.815 168.605 434.815H167.31C167.31 434.815 167.31 434.815 167.31 434.815V462.849H172.017C172.826 462.849 173.482 462.194 173.482 461.384V444.926C174.871 445.62 176.695 446.532 178.172 447.27C179.206 447.788 180.416 447.834 181.494 447.396C182.57 446.953 183.398 446.072 183.768 444.979C183.77 444.973 183.772 444.967 183.774 444.961C184.388 443.162 183.571 441.173 181.865 440.325Z" fill="#FE4A60"/>
<g filter="url(#filter1_d_28_2186)">
<rect x="568" y="137" width="80" height="80" rx="10" fill="white"/>
</g>
<g clip-path="url(#clip0_28_2186)">
<path d="M609.896 160.747C609.503 160.747 609.159 160.482 609.06 160.101C608.962 159.72 609.133 159.321 609.478 159.13C616.067 155.475 624.117 152.751 626.944 156.078C627.253 156.441 627.21 156.986 626.847 157.296C626.485 157.605 625.94 157.562 625.63 157.199C624.178 155.493 618.452 156.127 610.314 160.642C610.186 160.711 610.042 160.747 609.896 160.747Z" fill="#E57E25"/>
<path d="M589.25 183.698C588.896 183.698 588.579 183.483 588.448 183.154C587.268 180.184 589.941 175.076 595.603 169.486C595.947 169.187 596.464 169.207 596.784 169.532C597.103 169.857 597.115 170.374 596.81 170.713C591.13 176.325 589.322 180.685 590.05 182.517C590.156 182.782 590.123 183.083 589.963 183.319C589.802 183.556 589.535 183.698 589.25 183.698Z" fill="#E57E25"/>
<path d="M606.327 160.872C606.179 160.872 606.035 160.834 605.906 160.762C597.528 156.066 592.036 155.561 590.475 157.076C590.134 157.409 589.588 157.403 589.254 157.062C588.921 156.721 588.927 156.175 589.268 155.842C592.333 152.859 600.303 155.65 606.741 159.257C607.084 159.449 607.254 159.848 607.155 160.228C607.055 160.608 606.712 160.873 606.319 160.872H606.327Z" fill="#E57E25"/>
<path d="M626.783 183.612C626.503 183.612 626.24 183.475 626.078 183.246C625.917 183.016 625.877 182.722 625.972 182.458C626.785 180.197 624.123 175.587 619.189 170.713C618.86 170.377 618.861 169.838 619.191 169.503C619.522 169.169 620.06 169.161 620.401 169.486C625.977 174.995 628.666 180.063 627.594 183.041C627.471 183.383 627.147 183.611 626.783 183.612Z" fill="#E57E25"/>
<path d="M601.104 195.103H598.517C598.041 195.103 597.655 194.717 597.655 194.241C597.655 193.765 598.041 193.379 598.517 193.379H601.104C601.58 193.379 601.966 193.765 601.966 194.241C601.966 194.717 601.58 195.103 601.104 195.103Z" fill="#7F8284"/>
<path d="M617.483 195.103H614.897C614.421 195.103 614.035 194.717 614.035 194.241C614.035 193.765 614.421 193.379 614.897 193.379H617.483C617.959 193.379 618.345 193.765 618.345 194.241C618.345 194.717 617.959 195.103 617.483 195.103Z" fill="#7F8284"/>
<path d="M623.448 172.466C623.107 176.001 621.557 179.31 619.06 181.836C616.436 184.435 614.94 187.962 614.897 191.655H601.103C601.097 189.828 600.719 188.021 599.991 186.345C599.262 184.666 598.227 183.137 596.94 181.836C592.968 177.808 591.507 171.935 593.128 166.515C594.749 161.096 599.193 156.989 604.724 155.802C605.122 155.72 605.41 155.372 605.414 154.966V154.586C605.414 153.158 606.572 152 608 152C609.428 152 610.586 153.158 610.586 154.586V154.966C610.59 155.372 610.878 155.72 611.276 155.802C618.974 157.463 624.207 164.627 623.448 172.466Z" fill="#F0C419"/>
<path d="M620.692 172.466C620.458 175.88 619.202 179.146 617.086 181.836C614.863 184.625 613.657 188.089 613.666 191.655H602.335C602.333 189.846 602.024 188.05 601.421 186.345C600.846 184.711 599.999 183.186 598.914 181.836C596.798 179.146 595.542 175.88 595.309 172.466C594.685 164.371 599.176 157.397 605.309 155.802C605.663 155.68 605.894 155.339 605.875 154.966V154.586C605.759 153.289 606.705 152.137 608 152C608.59 152.013 609.141 152.292 609.502 152.759C609.913 153.278 610.133 153.924 610.125 154.586V154.966C610.106 155.339 610.337 155.68 610.692 155.802C616.824 157.397 621.315 164.371 620.692 172.466Z" fill="#F3D55B"/>
<path d="M614.897 191.655V196.828C614.894 197.779 614.124 198.549 613.172 198.552H602.828C601.877 198.549 601.106 197.779 601.104 196.828V191.655H614.897Z" fill="#95A5A5"/>
<path d="M612.31 198.983C612.31 200.647 610.379 202 608 202C605.62 202 603.689 200.647 603.689 198.983C603.689 198.838 603.706 198.693 603.741 198.552H612.258C612.293 198.693 612.31 198.838 612.31 198.983Z" fill="#393F4A"/>
<path d="M593.126 185.621C591.863 185.69 590.612 185.339 589.57 184.621C589.31 184.437 589.173 184.126 589.212 183.811C589.251 183.495 589.46 183.227 589.756 183.113C590.053 182.998 590.388 183.056 590.629 183.263C591.865 184.226 594.642 184.095 598.247 182.905C601.506 181.786 604.628 180.301 607.552 178.478C608.687 177.789 609.794 177.066 610.854 176.334C615.095 173.466 618.93 170.037 622.255 166.143C625.067 162.716 626.468 159.658 626.003 157.96C625.881 157.502 626.151 157.032 626.609 156.907C627.066 156.782 627.538 157.049 627.666 157.505C628.474 160.456 625.895 164.426 623.589 167.236C620.162 171.255 616.208 174.792 611.835 177.753C610.751 178.503 609.613 179.243 608.449 179.953C605.411 181.844 602.168 183.384 598.782 184.545C596.963 185.189 595.055 185.551 593.126 185.621Z" fill="#F29C1F"/>
<path d="M622.87 185.628C620.94 185.562 619.031 185.196 617.213 184.543C613.83 183.382 610.589 181.843 607.552 179.953C606.387 179.242 605.248 178.503 604.164 177.752C599.791 174.791 595.837 171.253 592.41 167.235C590.076 164.39 587.479 160.38 588.358 157.425C588.497 156.972 588.975 156.715 589.429 156.85C589.883 156.985 590.143 157.461 590.011 157.916C589.51 159.605 590.906 162.68 593.746 166.141C597.07 170.036 600.905 173.464 605.145 176.334C606.202 177.066 607.313 177.788 608.449 178.479C611.372 180.301 614.491 181.785 617.748 182.903C621.523 184.149 624.437 184.225 625.546 183.107C625.882 182.769 626.428 182.767 626.766 183.103C627.103 183.439 627.105 183.985 626.77 184.322C625.698 185.264 624.293 185.735 622.87 185.628Z" fill="#F29C1F"/>
<path d="M589.465 186.483C591.132 186.483 592.483 185.132 592.483 183.465C592.483 181.799 591.132 180.448 589.465 180.448C587.799 180.448 586.448 181.799 586.448 183.465C586.448 185.132 587.799 186.483 589.465 186.483Z" fill="#3B97D3"/>
<path d="M589.465 159.758C591.132 159.758 592.483 158.407 592.483 156.741C592.483 155.074 591.132 153.724 589.465 153.724C587.799 153.724 586.448 155.074 586.448 156.741C586.448 158.407 587.799 159.758 589.465 159.758Z" fill="#3B97D3"/>
<path d="M626.534 186.483C628.201 186.483 629.552 185.132 629.552 183.465C629.552 181.799 628.201 180.448 626.534 180.448C624.868 180.448 623.517 181.799 623.517 183.465C623.517 185.132 624.868 186.483 626.534 186.483Z" fill="#3B97D3"/>
<path d="M626.534 159.758C628.201 159.758 629.552 158.407 629.552 156.741C629.552 155.074 628.201 153.724 626.534 153.724C624.868 153.724 623.517 155.074 623.517 156.741C623.517 158.407 624.868 159.758 626.534 159.758Z" fill="#3B97D3"/>
<path d="M597.211 166.434C596.912 166.434 596.635 166.279 596.478 166.024C596.321 165.77 596.307 165.453 596.44 165.185C598.059 161.943 600.964 159.53 604.448 158.533C604.748 158.437 605.076 158.513 605.304 158.729C605.532 158.946 605.623 159.27 605.543 159.574C605.463 159.878 605.224 160.114 604.919 160.191C601.901 161.056 599.384 163.148 597.983 165.957C597.837 166.249 597.538 166.434 597.211 166.434Z" fill="white"/>
</g>
<g filter="url(#filter2_d_28_2186)">
<rect x="70" y="78" width="80" height="80" rx="10" fill="white"/>
</g>
<g clip-path="url(#clip1_28_2186)">
<path d="M92.4139 119.146H90.0173C89.605 119.147 89.2509 119.44 89.1725 119.845L85.3967 139.224C85.2987 139.73 85.4324 140.254 85.7612 140.651C86.09 141.048 86.5793 141.277 87.0949 141.276H105.69C105.69 142.224 107.621 143 110 143C112.379 143 114.31 142.224 114.31 141.276H132.905C133.421 141.277 133.91 141.048 134.239 140.651C134.568 140.254 134.702 139.73 134.604 139.224L130.828 119.845C130.749 119.44 130.395 119.147 129.983 119.146H92.4139Z" fill="#E64C3C"/>
<path d="M110 121.655V137.827C108.739 137.279 107.424 136.863 106.078 136.586C100.958 135.473 95.6351 135.744 90.6552 137.37C90.369 137.458 90.058 137.392 89.832 137.195C89.606 136.999 89.4969 136.7 89.5432 136.405L92.4139 119.146L92.6552 117.689C92.717 117.32 93.0089 117.031 93.3794 116.974C93.9656 116.888 94.569 116.801 95.1725 116.732C96.2259 118.78 98.3352 120.068 100.638 120.069C100.793 120.069 100.94 120.06 101.086 120.051C101.66 120.007 102.226 119.885 102.767 119.689C102.769 119.708 102.775 119.725 102.785 119.741C103.43 121.548 105.142 122.753 107.06 122.75C108.141 122.753 109.185 122.364 110 121.655Z" fill="#F5EFCA"/>
<path d="M129.345 137.37C124.365 135.744 119.042 135.473 113.922 136.586C112.576 136.863 111.261 137.279 110 137.827V121.655C110.181 121.506 110.349 121.342 110.5 121.163C111.361 121.506 112.28 121.681 113.207 121.681H113.259C113.303 122.297 113.538 122.884 113.931 123.362C114.768 124.189 115.814 124.773 116.957 125.051C117.786 125.316 118.526 125.805 119.095 126.465C119.602 127.093 120.46 127.314 121.207 127.008C121.864 126.724 122.291 126.078 122.293 125.362C122.294 125.174 122.265 124.988 122.207 124.81C122.121 124.543 122.026 124.275 121.914 124.017C121.698 123.483 121.414 122.979 121.069 122.517C122.779 121.592 123.979 119.945 124.336 118.034C124.362 118 124.397 117.965 124.422 117.931C124.717 117.584 124.959 117.194 125.138 116.775C125.638 116.836 126.129 116.896 126.621 116.974C126.991 117.031 127.283 117.319 127.345 117.689L127.586 119.146L130.457 136.405C130.503 136.7 130.394 136.999 130.168 137.195C129.942 137.391 129.631 137.458 129.345 137.37Z" fill="#F9EAB0"/>
<path d="M114.311 141.276C114.311 142.224 112.38 143 110 143C107.621 143 105.69 142.224 105.69 141.276L106.078 136.586C107.425 136.864 108.739 137.28 110 137.827C111.261 137.28 112.576 136.864 113.923 136.586L114.311 141.276Z" fill="#C03A2B"/>
<path d="M125.517 114.974C125.517 115.595 125.387 116.208 125.138 116.776C124.959 117.195 124.718 117.584 124.423 117.931C124.397 117.966 124.362 118 124.336 118.035C123.98 119.945 122.779 121.593 121.069 122.517C121.414 122.979 121.698 123.483 121.914 124.017C122.026 124.276 122.121 124.543 122.207 124.811C122.265 124.989 122.294 125.175 122.293 125.362C122.291 126.078 121.864 126.725 121.207 127.009C120.46 127.314 119.602 127.093 119.095 126.466C118.527 125.806 117.787 125.317 116.957 125.052C115.814 124.774 114.768 124.189 113.931 123.362C113.539 122.885 113.304 122.298 113.259 121.681H113.207C112.28 121.682 111.362 121.507 110.5 121.164C110.349 121.343 110.181 121.507 110 121.655C109.185 122.365 108.141 122.754 107.061 122.75C105.142 122.753 103.43 121.548 102.785 119.742C102.775 119.726 102.769 119.708 102.767 119.69C102.226 119.885 101.66 120.007 101.086 120.052C100.94 120.061 100.793 120.069 100.638 120.069C98.3082 120.068 96.1786 118.751 95.1351 116.668C94.0917 114.585 94.313 112.091 95.7071 110.224C95.6034 109.943 95.5509 109.645 95.5519 109.345C95.5467 108.071 96.4416 106.971 97.6899 106.716C97.6945 106.711 97.7006 106.708 97.7071 106.707C97.6985 106.604 97.6899 106.5 97.6899 106.388C97.6887 105.91 97.7886 105.437 97.983 105C98.533 103.728 99.7867 102.905 101.173 102.905C101.695 102.903 102.212 103.021 102.681 103.25C103.599 101.705 105.263 100.758 107.061 100.759C108.294 100.754 109.485 101.206 110.405 102.026C110.934 101.174 111.895 100.689 112.895 100.771C113.894 100.852 114.764 101.487 115.147 102.414C115.393 102.386 115.64 102.372 115.888 102.371C119.228 102.376 122.008 104.939 122.285 108.267H122.311C123.021 108.267 123.702 108.55 124.203 109.053C124.705 109.556 124.985 110.238 124.983 110.948C124.981 111.413 124.863 111.87 124.638 112.276C125.21 113.059 125.518 114.004 125.517 114.974Z" fill="#FB7B76"/>
<path d="M110 95.5862C109.524 95.5862 109.138 95.2002 109.138 94.7241V93.8621C109.138 93.386 109.524 93 110 93C110.476 93 110.862 93.386 110.862 93.8621V94.7241C110.862 95.2002 110.476 95.5862 110 95.5862Z" fill="#F0C419"/>
<path d="M123.894 101.52C123.546 101.52 123.231 101.31 123.098 100.987C122.964 100.665 123.038 100.295 123.285 100.048L124.147 99.1861C124.363 98.962 124.684 98.8721 124.985 98.951C125.286 99.0299 125.522 99.2652 125.601 99.5666C125.68 99.8681 125.59 100.189 125.366 100.405L124.504 101.267C124.342 101.429 124.123 101.52 123.894 101.52Z" fill="#F0C419"/>
<path d="M96.1063 101.52C95.8777 101.52 95.6585 101.429 95.4969 101.267L94.6348 100.405C94.4107 100.189 94.3208 99.8681 94.3997 99.5666C94.4786 99.2652 94.714 99.0299 95.0154 98.951C95.3168 98.8721 95.6373 98.962 95.8537 99.1861L96.7158 100.048C96.9623 100.295 97.036 100.665 96.9026 100.987C96.7692 101.31 96.455 101.52 96.1063 101.52Z" fill="#F0C419"/>
<path d="M102.743 97.8916C102.394 97.8917 102.08 97.6818 101.946 97.3597L100.956 94.9701C100.831 94.6841 100.869 94.3525 101.057 94.1032C101.246 93.854 101.554 93.7261 101.864 93.7689C102.173 93.8118 102.435 94.0187 102.549 94.3097L103.539 96.6994C103.627 96.9107 103.627 97.1483 103.54 97.3599C103.452 97.5714 103.284 97.7394 103.073 97.827C102.968 97.8697 102.856 97.8916 102.743 97.8916Z" fill="#F0C419"/>
<path d="M117.258 97.8916C117.145 97.8914 117.032 97.8691 116.928 97.8261C116.716 97.7386 116.549 97.5707 116.461 97.3593C116.374 97.148 116.374 96.9106 116.461 96.6994L117.452 94.3097C117.565 94.0187 117.827 93.8118 118.137 93.7689C118.446 93.7261 118.755 93.854 118.943 94.1032C119.131 94.3525 119.17 94.6841 119.044 94.9701L118.054 97.3597C117.921 97.6818 117.606 97.8917 117.258 97.8916Z" fill="#F0C419"/>
<path d="M127.522 108.157C127.109 108.158 126.754 107.868 126.673 107.463C126.593 107.059 126.81 106.654 127.191 106.498L129.581 105.508C129.866 105.39 130.191 105.433 130.436 105.621C130.68 105.808 130.806 106.112 130.765 106.417C130.725 106.723 130.525 106.983 130.24 107.101L127.852 108.091C127.747 108.134 127.635 108.157 127.522 108.157Z" fill="#F0C419"/>
<path d="M92.4784 108.157C92.365 108.157 92.2528 108.134 92.1482 108.091L89.7594 107.101C89.4748 106.983 89.2747 106.723 89.2345 106.417C89.1942 106.112 89.3199 105.808 89.5642 105.621C89.8085 105.433 90.1343 105.39 90.4189 105.508L92.8086 106.498C93.1899 106.654 93.407 107.059 93.3265 107.463C93.2461 107.868 92.8906 108.158 92.4784 108.157Z" fill="#F0C419"/>
<path d="M124.422 117.931C124.397 117.966 124.362 118 124.336 118.035C124.184 118.865 123.868 119.656 123.405 120.362C122.954 120.49 122.486 120.554 122.017 120.552C121.163 120.549 120.321 120.346 119.56 119.957C119.2 119.764 118.862 119.533 118.552 119.267C118.208 119.401 117.843 119.471 117.474 119.474C116.335 119.48 115.292 118.838 114.784 117.819C114.646 117.543 114.665 117.215 114.834 116.957C115.004 116.699 115.298 116.551 115.606 116.569C115.914 116.587 116.189 116.768 116.328 117.043C116.498 117.37 116.799 117.609 117.157 117.699C117.514 117.79 117.893 117.724 118.198 117.517C118.543 117.282 118.749 116.892 118.75 116.474C118.751 116.274 118.707 116.077 118.621 115.897C118.447 115.48 118.625 115 119.027 114.796C119.43 114.592 119.922 114.734 120.155 115.121C120.365 115.541 120.474 116.005 120.474 116.474C120.467 117.077 120.278 117.663 119.931 118.155C120.069 118.25 120.207 118.345 120.345 118.423C120.862 118.689 121.435 118.828 122.017 118.828C122.901 118.833 123.757 118.514 124.422 117.931Z" fill="#FF0000"/>
<path d="M113.879 114.546C114.996 113.777 115.764 112.598 116.016 111.265C116.08 110.96 115.975 110.644 115.74 110.439C115.506 110.234 115.178 110.171 114.885 110.275C114.591 110.379 114.376 110.634 114.323 110.941C114.154 111.83 113.641 112.617 112.895 113.13C111.461 114.096 109.538 113.877 108.358 112.613C108.036 112.26 107.49 112.235 107.138 112.556C106.786 112.877 106.761 113.423 107.082 113.776C107.813 114.583 108.779 115.14 109.845 115.369C109.362 116.047 108.579 116.45 107.746 116.448C107.27 116.448 106.884 116.834 106.884 117.31C106.884 117.786 107.27 118.172 107.746 118.172C109.531 118.179 111.132 117.077 111.763 115.407C112.523 115.281 113.246 114.987 113.879 114.546Z" fill="#FF0000"/>
<path d="M121.914 124.018C121.28 124.341 120.599 124.562 119.897 124.673C119.851 124.68 119.805 124.683 119.759 124.681C119.305 124.686 118.925 124.337 118.891 123.884C118.857 123.431 119.18 123.03 119.629 122.966C120.129 122.89 120.615 122.739 121.069 122.518C121.414 122.979 121.698 123.483 121.914 124.018Z" fill="#FF0000"/>
<path d="M102.707 118C102.663 118.242 102.64 118.487 102.638 118.733C102.636 119.056 102.68 119.378 102.767 119.69C102.226 119.885 101.66 120.007 101.086 120.052C100.976 119.63 100.918 119.195 100.914 118.759C99.3951 118.593 98.2441 117.312 98.2412 115.785C98.2383 115.304 98.6232 114.912 99.1033 114.905C99.3309 114.904 99.5496 114.993 99.7113 115.153C99.8731 115.313 99.9645 115.531 99.9654 115.759V115.785C99.9783 116.466 100.518 117.02 101.198 117.052C101.317 116.663 101.482 116.29 101.69 115.94C101.805 115.742 101.996 115.6 102.218 115.544C102.441 115.489 102.676 115.526 102.871 115.647C103.276 115.897 103.406 116.426 103.164 116.836C102.945 117.195 102.79 117.589 102.707 118Z" fill="#FF0000"/>
<path d="M115.526 123.043C115.008 123.209 114.473 123.316 113.931 123.362C113.538 122.885 113.303 122.297 113.258 121.681C113.342 121.682 113.425 121.679 113.508 121.672C114.02 121.64 114.527 121.547 115.017 121.396C115.314 121.294 115.644 121.362 115.876 121.574C116.109 121.785 116.208 122.106 116.135 122.412C116.062 122.718 115.829 122.959 115.526 123.043Z" fill="#FF0000"/>
<path d="M108.103 107.655C108.103 107.179 107.718 106.793 107.241 106.793C105.052 106.795 103.278 108.569 103.276 110.758C103.276 111.235 103.662 111.621 104.138 111.621C104.614 111.621 105 111.235 105 110.758C105 110.164 105.236 109.594 105.657 109.174C106.077 108.753 106.647 108.517 107.241 108.517C107.718 108.517 108.103 108.131 108.103 107.655Z" fill="#FF0000"/>
<path d="M96.8516 112.503C96.6951 112.503 96.5415 112.46 96.4077 112.378C95.6968 111.95 95.159 111.285 94.8878 110.5C94.7567 110.127 94.6899 109.734 94.6904 109.339C94.6904 107.385 96.2712 105.8 98.2249 105.794C99.3444 105.79 100.398 106.321 101.06 107.224C101.244 107.471 101.282 107.798 101.159 108.081C101.037 108.364 100.773 108.56 100.467 108.595C100.161 108.63 99.8595 108.5 99.6758 108.253C99.3379 107.792 98.8 107.52 98.2284 107.522C97.4124 107.526 96.699 108.073 96.4824 108.859C96.2658 109.646 96.5987 110.481 97.2973 110.903C97.6295 111.102 97.7875 111.499 97.6836 111.873C97.5796 112.246 97.2392 112.504 96.8516 112.503V112.503Z" fill="#FF0000"/>
<path d="M115.351 104.303C114.875 104.303 114.489 103.917 114.489 103.441C114.489 102.439 113.677 101.627 112.675 101.627C111.674 101.627 110.862 102.439 110.862 103.441C110.862 103.917 110.476 104.303 110 104.303C109.524 104.303 109.138 103.917 109.138 103.441C109.138 101.487 110.721 99.9033 112.675 99.9033C114.629 99.9033 116.213 101.487 116.213 103.441C116.213 103.669 116.122 103.889 115.96 104.05C115.799 104.212 115.579 104.303 115.351 104.303Z" fill="#FF0000"/>
<path d="M123.437 114.243C123.037 114.239 122.692 113.96 122.604 113.569C122.517 113.179 122.71 112.779 123.07 112.605C123.413 112.444 123.699 112.18 123.886 111.85C124.325 111.102 124.172 110.149 123.522 109.576C122.872 109.003 121.907 108.97 121.221 109.499C120.84 109.785 120.299 109.707 120.014 109.327C119.728 108.946 119.805 108.405 120.186 108.12C120.789 107.663 121.524 107.414 122.281 107.409C123.947 107.398 125.395 108.548 125.762 110.173C126.129 111.797 125.315 113.458 123.806 114.164C123.691 114.217 123.564 114.244 123.437 114.243Z" fill="#FF0000"/>
</g>
<g filter="url(#filter3_d_28_2186)">
<rect x="658" y="632" width="80" height="80" rx="10" fill="white"/>
</g>
<g clip-path="url(#clip2_28_2186)">
<path d="M718.463 696.999H703.647C701.418 696.999 699.61 695.191 699.61 692.962V678.146C699.61 675.917 701.418 674.109 703.647 674.109H718.463C720.692 674.109 722.5 675.917 722.5 678.146V692.962C722.5 695.191 720.692 696.999 718.463 696.999Z" fill="#BDF4E3"/>
<path d="M717.15 693.433H704.96C703.976 693.433 703.177 692.635 703.177 691.65V679.461C703.177 678.476 703.976 677.678 704.96 677.678H717.15C718.134 677.678 718.933 678.476 718.933 679.461V691.65C718.933 692.635 718.134 693.433 717.15 693.433Z" fill="#FFDCB6"/>
<path d="M718.463 674.109H714.095C715.808 674.109 717.197 675.498 717.197 677.211V688.594C717.197 690.307 715.808 691.696 714.095 691.696H702.712C700.999 691.696 699.611 690.307 699.611 688.594V692.962C699.611 695.191 701.418 696.999 703.648 696.999H718.463C720.693 696.999 722.5 695.191 722.5 692.962V678.146C722.5 675.917 720.693 674.109 718.463 674.109Z" fill="#B1B7E3"/>
<path d="M717.197 677.68V688.595C717.197 690.308 715.808 691.696 714.095 691.696H703.18C703.205 692.659 703.992 693.433 704.961 693.433H717.15C718.135 693.433 718.933 692.634 718.933 691.65V679.46C718.933 678.491 718.16 677.705 717.197 677.68Z" fill="#EFA5B6"/>
<path d="M715.526 674.088H700.711C698.481 674.088 696.674 672.28 696.674 670.051V655.235C696.674 653.006 698.481 651.198 700.711 651.198H715.526C717.756 651.198 719.563 653.006 719.563 655.235V670.051C719.563 672.28 717.756 674.088 715.526 674.088Z" fill="#EF8BBD"/>
<path d="M714.213 670.52H702.024C701.04 670.52 700.241 669.722 700.241 668.737V656.548C700.241 655.563 701.04 654.765 702.024 654.765H714.213C715.198 654.765 715.996 655.563 715.996 656.548V668.737C715.996 669.722 715.198 670.52 714.213 670.52Z" fill="#FFDCB6"/>
<path d="M715.526 651.198H711.158C712.871 651.198 714.26 652.587 714.26 654.3V665.683C714.26 667.396 712.871 668.784 711.158 668.784H699.775C698.063 668.784 696.674 667.396 696.674 665.683V670.051C696.674 672.28 698.481 674.088 700.711 674.088H715.526C717.756 674.088 719.563 672.28 719.563 670.051V655.235C719.563 653.006 717.756 651.198 715.526 651.198Z" fill="#E068BD"/>
<path d="M714.26 654.768V665.683C714.26 667.396 712.872 668.784 711.159 668.784H700.242C700.267 669.747 701.055 670.521 702.024 670.521H714.213C715.198 670.521 715.996 669.722 715.996 668.737V656.548C715.996 655.579 715.223 654.793 714.26 654.768Z" fill="#EFA5B6"/>
<path d="M692.353 696.999H677.537C675.307 696.999 673.5 695.191 673.5 692.962V678.146C673.5 675.917 675.307 674.109 677.537 674.109H692.353C694.582 674.109 696.39 675.917 696.39 678.146V692.962C696.389 695.191 694.582 696.999 692.353 696.999Z" fill="#CAB4EF"/>
<path d="M691.039 693.431H678.85C677.865 693.431 677.067 692.633 677.067 691.648V679.459C677.067 678.474 677.865 677.676 678.85 677.676H691.039C692.024 677.676 692.822 678.474 692.822 679.459V691.648C692.822 692.633 692.024 693.431 691.039 693.431Z" fill="#FFDCB6"/>
<path d="M692.354 674.109H687.985C689.698 674.109 691.087 675.498 691.087 677.211V688.594C691.087 690.307 689.698 691.696 687.985 691.696H676.603C674.89 691.696 673.501 690.307 673.501 688.594V692.962C673.501 695.191 675.308 696.999 677.538 696.999H692.354C694.583 696.999 696.39 695.192 696.39 692.962V678.146C696.39 675.917 694.583 674.109 692.354 674.109Z" fill="#BE87EF"/>
<path d="M691.086 677.679V688.594C691.086 690.307 689.697 691.695 687.984 691.695H677.069C677.094 692.658 677.881 693.432 678.85 693.432H691.039C692.024 693.432 692.822 692.633 692.822 691.648V679.459C692.822 678.49 692.049 677.704 691.086 677.679Z" fill="#EFA5B6"/>
<path d="M679.743 685.878C679.203 685.878 678.766 685.441 678.766 684.901V683.694C678.766 683.155 679.203 682.718 679.743 682.718C680.282 682.718 680.719 683.155 680.719 683.694V684.901C680.719 685.441 680.282 685.878 679.743 685.878Z" fill="white"/>
<path d="M679.743 681.815C679.203 681.815 678.766 681.378 678.766 680.838V680.396C678.766 679.856 679.203 679.419 679.743 679.419C680.282 679.419 680.719 679.856 680.719 680.396V680.838C680.719 681.378 680.282 681.815 679.743 681.815Z" fill="white"/>
<path d="M712.082 691.64C711.563 691.606 711.171 691.152 711.171 690.632V681.421H709.996C709.476 681.421 709.022 681.028 708.988 680.509C708.952 679.941 709.402 679.468 709.963 679.468H712.238C712.727 679.468 713.124 679.864 713.124 680.354V690.666C713.124 691.226 712.651 691.677 712.082 691.64Z" fill="#D58A9C"/>
<path d="M707.644 668.833C705.684 668.833 705.54 668.784 705.408 668.741C705.083 668.632 704.84 668.386 704.741 668.066C704.571 667.513 704.81 667.201 705.447 666.367C705.967 665.686 706.934 664.419 708.556 662.102C709.038 661.413 709.349 660.796 709.48 660.267L709.515 659.993C709.486 659.115 708.763 658.409 707.878 658.409C707.096 658.409 706.42 658.964 706.269 659.729C706.165 660.258 705.652 660.603 705.123 660.499C704.594 660.395 704.249 659.882 704.353 659.353C704.683 657.674 706.165 656.456 707.878 656.456C709.858 656.456 711.469 658.067 711.469 660.048V660.11L711.405 660.616L711.394 660.664C711.212 661.448 710.796 662.308 710.156 663.222C708.942 664.957 708.088 666.113 707.512 666.877C708.476 666.874 709.736 666.869 710.914 666.854C710.918 666.854 710.922 666.854 710.926 666.854C711.46 666.854 711.896 667.283 711.903 667.818C711.909 668.357 711.478 668.8 710.938 668.807C709.481 668.825 708.42 668.833 707.644 668.833Z" fill="#D58A9C"/>
<path d="M684.945 686.531C684.406 686.531 683.968 686.094 683.968 685.555C683.968 685.016 684.406 684.578 684.945 684.578C685.849 684.578 686.584 683.843 686.584 682.939C686.584 682.036 685.849 681.301 684.945 681.301C684.163 681.301 683.487 681.856 683.337 682.621C683.233 683.15 682.72 683.495 682.19 683.391C681.661 683.287 681.316 682.774 681.42 682.245C681.75 680.566 683.232 679.348 684.945 679.348C686.926 679.348 688.537 680.959 688.537 682.94C688.537 684.92 686.926 686.531 684.945 686.531Z" fill="#D58A9C"/>
<path d="M684.945 691.762C683.163 691.762 681.633 690.433 681.388 688.67C681.365 688.505 681.353 688.337 681.353 688.17C681.353 687.631 681.79 687.193 682.33 687.193C682.869 687.193 683.306 687.631 683.306 688.17C683.306 688.247 683.312 688.324 683.322 688.4C683.434 689.203 684.132 689.809 684.945 689.809C685.849 689.809 686.584 689.074 686.584 688.17C686.584 687.266 685.849 686.531 684.945 686.531C684.406 686.531 683.968 686.094 683.968 685.555C683.968 685.015 684.406 684.578 684.945 684.578C686.926 684.578 688.537 686.189 688.537 688.17C688.537 690.151 686.926 691.762 684.945 691.762Z" fill="#D58A9C"/>
<path d="M690.237 647.253L691.087 649.643C691.123 649.746 691.196 649.827 691.286 649.868L693.41 650.825C693.71 650.96 693.71 651.438 693.41 651.573L691.286 652.53C691.196 652.571 691.123 652.652 691.087 652.754L690.237 655.145C690.117 655.482 689.692 655.482 689.572 655.145L688.722 652.754C688.685 652.652 688.613 652.571 688.522 652.53L686.399 651.573C686.099 651.438 686.099 650.96 686.399 650.825L688.522 649.868C688.613 649.827 688.685 649.746 688.722 649.643L689.572 647.253C689.692 646.916 690.117 646.916 690.237 647.253Z" fill="#F7C4DB"/>
<path d="M679.576 668.02C679.969 667.073 679.519 665.987 678.572 665.594C677.625 665.202 676.539 665.651 676.146 666.598C675.753 667.546 676.203 668.632 677.15 669.024C678.097 669.417 679.184 668.967 679.576 668.02Z" fill="#EF8BBD"/>
<path d="M681.812 654.892C681.882 654.463 681.591 654.06 681.162 653.99C680.734 653.921 680.33 654.212 680.261 654.64C680.191 655.069 680.482 655.472 680.911 655.542C681.339 655.611 681.743 655.32 681.812 654.892Z" fill="#EF8BBD"/>
<path d="M685.192 661.813L685.822 663.586C685.849 663.662 685.903 663.722 685.97 663.752L687.545 664.462C687.768 664.562 687.768 664.917 687.545 665.017L685.97 665.727C685.903 665.757 685.849 665.818 685.822 665.893L685.192 667.666C685.103 667.917 684.788 667.917 684.698 667.666L684.068 665.893C684.041 665.818 683.987 665.757 683.92 665.727L682.345 665.017C682.122 664.917 682.122 664.562 682.345 664.462L683.92 663.752C683.987 663.722 684.041 663.662 684.068 663.586L684.698 661.813C684.787 661.562 685.102 661.562 685.192 661.813Z" fill="#F7C4DB"/>
</g>
<defs>
<filter id="filter0_d_28_2186" x="73" y="356" width="220" height="220" filterUnits="userSpaceOnUse" color-interpolation-filters="sRGB">
<feFlood flood-opacity="0" result="BackgroundImageFix"/>
<feColorMatrix in="SourceAlpha" type="matrix" values="0 0 0 0 0 0 0 0 0 0 0 0 0 0 0 0 0 0 127 0" result="hardAlpha"/>
<feOffset dy="25"/>
<feGaussianBlur stdDeviation="35"/>
<feColorMatrix type="matrix" values="0 0 0 0 0.0392157 0 0 0 0 0.0117647 0 0 0 0 0.235294 0 0 0 0.15 0"/>
<feBlend mode="normal" in2="BackgroundImageFix" result="effect1_dropShadow_28_2186"/>
<feBlend mode="normal" in="SourceGraphic" in2="effect1_dropShadow_28_2186" result="shape"/>
</filter>
<filter id="filter1_d_28_2186" x="498" y="92" width="220" height="220" filterUnits="userSpaceOnUse" color-interpolation-filters="sRGB">
<feFlood flood-opacity="0" result="BackgroundImageFix"/>
<feColorMatrix in="SourceAlpha" type="matrix" values="0 0 0 0 0 0 0 0 0 0 0 0 0 0 0 0 0 0 127 0" result="hardAlpha"/>
<feOffset dy="25"/>
<feGaussianBlur stdDeviation="35"/>
<feColorMatrix type="matrix" values="0 0 0 0 0.0392157 0 0 0 0 0.0117647 0 0 0 0 0.235294 0 0 0 0.15 0"/>
<feBlend mode="normal" in2="BackgroundImageFix" result="effect1_dropShadow_28_2186"/>
<feBlend mode="normal" in="SourceGraphic" in2="effect1_dropShadow_28_2186" result="shape"/>
</filter>
<filter id="filter2_d_28_2186" x="0" y="33" width="220" height="220" filterUnits="userSpaceOnUse" color-interpolation-filters="sRGB">
<feFlood flood-opacity="0" result="BackgroundImageFix"/>
<feColorMatrix in="SourceAlpha" type="matrix" values="0 0 0 0 0 0 0 0 0 0 0 0 0 0 0 0 0 0 127 0" result="hardAlpha"/>
<feOffset dy="25"/>
<feGaussianBlur stdDeviation="35"/>
<feColorMatrix type="matrix" values="0 0 0 0 0.0392157 0 0 0 0 0.0117647 0 0 0 0 0.235294 0 0 0 0.15 0"/>
<feBlend mode="normal" in2="BackgroundImageFix" result="effect1_dropShadow_28_2186"/>
<feBlend mode="normal" in="SourceGraphic" in2="effect1_dropShadow_28_2186" result="shape"/>
</filter>
<filter id="filter3_d_28_2186" x="588" y="587" width="220" height="220" filterUnits="userSpaceOnUse" color-interpolation-filters="sRGB">
<feFlood flood-opacity="0" result="BackgroundImageFix"/>
<feColorMatrix in="SourceAlpha" type="matrix" values="0 0 0 0 0 0 0 0 0 0 0 0 0 0 0 0 0 0 127 0" result="hardAlpha"/>
<feOffset dy="25"/>
<feGaussianBlur stdDeviation="35"/>
<feColorMatrix type="matrix" values="0 0 0 0 0.0392157 0 0 0 0 0.0117647 0 0 0 0 0.235294 0 0 0 0.15 0"/>
<feBlend mode="normal" in2="BackgroundImageFix" result="effect1_dropShadow_28_2186"/>
<feBlend mode="normal" in="SourceGraphic" in2="effect1_dropShadow_28_2186" result="shape"/>
</filter>
<linearGradient id="paint0_linear_28_2186" x1="442" y1="202.022" x2="442" y2="777" gradientUnits="userSpaceOnUse">
<stop stop-color="#FF6652" stop-opacity="0"/>
<stop offset="1" stop-color="#FF6652"/>
</linearGradient>
<clipPath id="clip0_28_2186">
<rect width="50" height="50" fill="white" transform="translate(583 152)"/>
</clipPath>
<clipPath id="clip1_28_2186">
<rect width="50" height="50" fill="white" transform="translate(85 93)"/>
</clipPath>
<clipPath id="clip2_28_2186">
<rect width="50" height="50" fill="white" transform="translate(673 647)"/>
</clipPath>
</defs>
</svg>
