<svg width="38" height="38" viewBox="0 0 38 38" fill="none" xmlns="http://www.w3.org/2000/svg">
<path d="M35.5165 2.53975C34.1519 1.348 32.6168 0.666992 30.7405 0.666992C28.8642 0.666992 26.988 1.51825 25.6234 2.88025L5.66675 22.9699L6.86074 24.1616L8.05473 25.3534L12.6601 29.9501L13.8541 31.1419L15.0481 32.3337L35.1753 12.2441C37.9044 9.52004 38.075 5.09352 35.5165 2.53975Z" fill="white"/>
<path d="M10.0456 31.7134L6.61384 28.2817L5.30651 26.9743L3.99918 25.667C3.67235 26.1572 3.50893 26.8109 3.34552 27.3012L0.730857 35.3086C0.567441 35.9622 0.730857 36.4525 1.05769 36.9427C1.38452 37.2695 2.03819 37.433 2.69185 37.2695L10.6993 34.8183C11.3529 34.6549 11.8432 34.3281 12.3334 34.1646L11.1895 33.0207L10.0456 31.7134Z" fill="white"/>
</svg>
